<svg xmlns="http://www.w3.org/2000/svg" id="SvgjsSvg26922" width="4096" height="1990.0870401008979" version="1.1" xmlns:xlink="http://www.w3.org/1999/xlink" xmlns:svgjs="http://svgjs.com/svgjs"><defs id="SvgjsDefs26923"></defs><rect id="SvgjsRect26924" width="4096" height="1990.0870401008979" fill="#f2f2f2"></rect><g id="SvgjsG26925" transform="translate(327.9999999999998, 328) scale(34.4)" opacity="1"><defs id="SvgjsDefs9188"></defs><g id="SvgjsG9189" transform="scale(0.25373952350856666)" opacity="1"><g id="SvgjsG9190" class="ym6wn6mBa" transform="translate(153.85757562705598, -0.8968387948891439) scale(0.8508906972382753)" light-content="false" non-strokable="false" fill="#29292e"><path d="M70.934 40.191c7.71-1.434 12.781-3.074 16.406-8.05 1.91-2.622 2.309-5.47 1.137-8.024-1.86-4.047-7.23-6.781-14.816-7.586-1.004-9.434-5.094-15.473-10.57-15.473-1.707 0-3.399.601-5.04 1.797-4.976 3.62-6.613 8.691-8.05 16.406-1.434-7.719-3.074-12.79-8.051-16.41-1.637-1.192-3.336-1.797-5.04-1.797-5.472 0-9.562 6.039-10.565 15.477-7.582.8-12.953 3.539-14.816 7.582-1.176 2.55-.774 5.406 1.133 8.027 3.62 4.977 8.695 6.613 16.406 8.051-7.715 1.434-12.785 3.074-16.406 8.05-1.906 2.622-2.309 5.47-1.133 8.024 1.86 4.047 7.23 6.781 14.816 7.582 1 9.438 5.086 15.473 10.566 15.473 1.703 0 3.398-.601 5.039-1.797 3.656-2.656 5.504-6.113 6.8-10.812l-.003 32.23h2.5l.004-32.223c1.297 4.7 3.14 8.153 6.8 10.81 1.637 1.19 3.333 1.796 5.04 1.796h.004c5.468 0 9.558-6.039 10.566-15.477 7.582-.8 12.953-3.539 14.816-7.578 1.175-2.55.773-5.406-1.133-8.023-3.63-4.98-8.7-6.618-16.41-8.055zM86.2 55.226c-1.531 3.332-6.688 5.664-13.789 6.23a1.254 1.254 0 0 0-1.148 1.145c-.684 8.512-3.97 14.227-8.176 14.227-1.168 0-2.367-.445-3.574-1.316-5.239-3.809-6.22-9.641-7.996-20.227l-.29-1.723a1.25 1.25 0 0 0-1.234-1.043c-.61 0-1.129.441-1.234 1.043l-.286 1.695c-1.78 10.602-2.761 16.441-8.003 20.258-1.2.875-2.403 1.317-3.57 1.317-4.212 0-7.497-5.715-8.177-14.223a1.25 1.25 0 0 0-1.144-1.145c-7.102-.57-12.258-2.898-13.793-6.23-1-2.176-.074-4.2.887-5.512 3.808-5.242 9.64-6.219 20.238-8l1.71-.29a1.25 1.25 0 0 0 1.044-1.234c0-.609-.442-1.128-1.043-1.234l-1.684-.281c-10.609-1.781-16.449-2.762-20.266-8.004-.953-1.313-1.883-3.336-.883-5.516 1.531-3.332 6.692-5.664 13.793-6.23a1.257 1.257 0 0 0 1.149-1.145c.675-8.508 3.96-14.227 8.171-14.227 1.168 0 2.368.446 3.57 1.317 5.24 3.808 6.22 9.64 7.997 20.227l.293 1.722a1.25 1.25 0 0 0 2.465 0l.281-1.699C53.289 14.526 54.27 8.69 59.512 4.874c1.2-.87 2.402-1.316 3.57-1.316 4.211 0 7.496 5.715 8.176 14.223.05.61.535 1.094 1.148 1.144 7.102.575 12.258 2.899 13.79 6.235 1 2.175.074 4.199-.887 5.511-3.817 5.246-9.657 6.223-20.266 8.004l-1.688.282a1.247 1.247 0 0 0-1.039 1.234c0 .61.442 1.129 1.04 1.234l1.702.286c10.598 1.78 16.438 2.761 20.254 8.003.961 1.313 1.887 3.336.887 5.512z"></path><path d="M53.676 37.766c.32 0 .64-.121.887-.363l8.238-8.239a1.247 1.247 0 0 0 0-1.765 1.247 1.247 0 0 0-1.766 0l-8.238 8.238a1.247 1.247 0 0 0 .879 2.129zM38.973 27.391a1.247 1.247 0 0 0-1.766 0 1.247 1.247 0 0 0 0 1.766l8.239 8.238c.246.246.566.363.886.363a1.247 1.247 0 0 0 .887-2.129zm6.468 15.593l-8.238 8.238a1.247 1.247 0 0 0 .886 2.13c.317 0 .641-.122.887-.364l8.238-8.238a1.247 1.247 0 0 0 0-1.766 1.257 1.257 0 0 0-1.773 0zm9.118 0a1.247 1.247 0 0 0-1.766 0 1.247 1.247 0 0 0 0 1.766l8.239 8.238c.246.246.566.363.886.363a1.247 1.247 0 0 0 .887-2.129z"></path></g><g id="SvgjsG9191" class="text" transform="translate(196.43, 124.44055397233478) scale(1)" light-content="false" fill="#29292e"><path d="M-188.77 0.03C-187.76 0.1 -186.89 0.14 -186.15 0.14C-184.08 0.14 -182.18 -0.33 -180.44 -1.26C-178.71 -2.19 -177.33 -3.51 -176.3 -5.23C-175.28 -6.94 -174.77 -8.91 -174.77 -11.14C-174.77 -13.12 -175.26 -14.9 -176.25 -16.49C-177.24 -18.08 -178.64 -19.33 -180.44 -20.25C-182.25 -21.17 -184.31 -21.63 -186.63 -21.63C-187.05 -21.63 -187.85 -21.61 -189.05 -21.56C-190.04 -21.49 -191 -21.46 -191.95 -21.46C-192.57 -21.46 -193.41 -21.48 -194.47 -21.52L-196.29 -21.56C-196.36 -21.56 -196.4 -21.49 -196.4 -21.35C-196.4 -21.21 -196.36 -21.15 -196.29 -21.15C-195.58 -21.15 -195.06 -21.08 -194.72 -20.96C-194.39 -20.83 -194.16 -20.6 -194.03 -20.28C-193.91 -19.96 -193.84 -19.46 -193.84 -18.77L-193.84 -2.79C-193.84 -2.1 -193.91 -1.59 -194.03 -1.26C-194.16 -0.93 -194.4 -0.7 -194.74 -0.59C-195.09 -0.47 -195.63 -0.41 -196.36 -0.41C-196.41 -0.41 -196.43 -0.34 -196.43 -0.21C-196.43 -0.07 -196.41 0 -196.36 0C-195.58 0 -194.96 -0.01 -194.5 -0.03L-191.95 -0.07C-191.28 -0.07 -190.68 -0.06 -190.14 -0.03C-189.6 -0.01 -189.14 0.01 -188.77 0.03ZM-182.6 -1.78C-183.73 -1.03 -185.03 -0.66 -186.5 -0.66C-187.88 -0.66 -188.81 -0.85 -189.29 -1.22C-189.77 -1.6 -190.02 -2.25 -190.02 -3.17L-190.02 -18.7C-190.02 -19.59 -189.75 -20.18 -189.22 -20.46C-188.69 -20.73 -187.72 -20.87 -186.29 -20.87C-184.84 -20.87 -183.56 -20.41 -182.46 -19.49C-181.36 -18.57 -180.51 -17.31 -179.91 -15.71C-179.31 -14.11 -179.01 -12.34 -179.01 -10.38C-179.01 -8.34 -179.33 -6.58 -179.96 -5.11C-180.59 -3.63 -181.47 -2.52 -182.6 -1.78Z M-154.23 -20.08C-153.66 -19.36 -153.38 -18.39 -153.38 -17.14L-153.38 -7.52C-153.38 -5.36 -153.92 -3.7 -155 -2.54C-156.08 -1.37 -157.58 -0.79 -159.49 -0.79C-161.47 -0.79 -162.99 -1.45 -164.08 -2.76C-165.16 -4.07 -165.7 -6.09 -165.7 -8.83L-165.7 -18.7C-165.7 -19.39 -165.63 -19.9 -165.51 -20.23C-165.38 -20.56 -165.15 -20.8 -164.82 -20.94C-164.48 -21.08 -163.96 -21.15 -163.25 -21.15C-163.18 -21.15 -163.14 -21.21 -163.14 -21.35C-163.14 -21.49 -163.18 -21.56 -163.25 -21.56L-165.01 -21.52C-166.06 -21.48 -166.94 -21.46 -167.63 -21.46C-168.25 -21.46 -169.09 -21.48 -170.15 -21.52L-171.97 -21.56C-172.04 -21.56 -172.08 -21.49 -172.08 -21.35C-172.08 -21.21 -172.04 -21.15 -171.97 -21.15C-171.26 -21.15 -170.74 -21.08 -170.41 -20.96C-170.07 -20.83 -169.84 -20.6 -169.72 -20.28C-169.59 -19.96 -169.53 -19.46 -169.53 -18.77L-169.53 -7.62C-169.53 -5.97 -169.15 -4.52 -168.4 -3.29C-167.66 -2.06 -166.63 -1.13 -165.32 -0.48C-164.01 0.16 -162.5 0.48 -160.8 0.48C-159.1 0.48 -157.6 0.16 -156.3 -0.5C-155 -1.16 -153.99 -2.09 -153.28 -3.31C-152.57 -4.53 -152.21 -5.94 -152.21 -7.55L-152.21 -17.14C-152.21 -18.39 -151.96 -19.36 -151.45 -20.08C-150.94 -20.79 -150.24 -21.15 -149.35 -21.15C-149.3 -21.15 -149.28 -21.21 -149.28 -21.35C-149.28 -21.49 -149.3 -21.56 -149.35 -21.56L-150.93 -21.52C-151.76 -21.48 -152.39 -21.46 -152.83 -21.46C-153.36 -21.46 -154.06 -21.48 -154.93 -21.52L-156.59 -21.56C-156.64 -21.56 -156.66 -21.49 -156.66 -21.35C-156.66 -21.21 -156.64 -21.15 -156.59 -21.15C-155.58 -21.15 -154.79 -20.79 -154.23 -20.08Z M-131.58 -5.55C-131.67 -5.55 -131.72 -5.53 -131.72 -5.48C-132.22 -3.94 -133.02 -2.81 -134.1 -2.07C-135.18 -1.33 -136.62 -0.97 -138.41 -0.97L-139.55 -0.97C-140.1 -0.97 -140.5 -1.13 -140.76 -1.45C-141.01 -1.77 -141.14 -2.27 -141.14 -2.93L-141.14 -10.73L-138.31 -10.73C-136.95 -10.73 -135.91 -10.46 -135.19 -9.92C-134.46 -9.38 -134.1 -8.64 -134.1 -7.69C-134.1 -7.65 -134.03 -7.62 -133.89 -7.62C-133.75 -7.62 -133.69 -7.65 -133.69 -7.69C-133.69 -8.15 -133.71 -8.77 -133.75 -9.56L-133.79 -11.21L-133.75 -14.32C-133.75 -14.38 -133.82 -14.42 -133.94 -14.42C-134.07 -14.42 -134.13 -14.38 -134.13 -14.32C-134.13 -13.49 -134.49 -12.84 -135.2 -12.38C-135.92 -11.92 -136.94 -11.69 -138.27 -11.69L-141.14 -11.69L-141.14 -18.73C-141.14 -19.35 -140.98 -19.81 -140.65 -20.11C-140.33 -20.41 -139.83 -20.56 -139.14 -20.56L-138.1 -20.56C-136.67 -20.56 -135.52 -20.24 -134.65 -19.59C-133.78 -18.95 -133.16 -17.96 -132.79 -16.63C-132.77 -16.56 -132.69 -16.53 -132.56 -16.56C-132.44 -16.58 -132.37 -16.62 -132.37 -16.66L-132.44 -21.25C-132.44 -21.46 -132.56 -21.56 -132.79 -21.56L-147.41 -21.56C-147.48 -21.56 -147.52 -21.49 -147.52 -21.35C-147.52 -21.21 -147.48 -21.15 -147.41 -21.15C-146.7 -21.15 -146.17 -21.08 -145.83 -20.96C-145.48 -20.83 -145.25 -20.6 -145.14 -20.28C-145.02 -19.96 -144.97 -19.46 -144.97 -18.77L-144.97 -2.79C-144.97 -2.1 -145.02 -1.59 -145.14 -1.26C-145.25 -0.93 -145.48 -0.7 -145.81 -0.59C-146.14 -0.47 -146.68 -0.41 -147.41 -0.41C-147.48 -0.41 -147.52 -0.34 -147.52 -0.21C-147.52 -0.07 -147.48 0 -147.41 0L-132.17 0C-131.96 0 -131.82 -0.04 -131.75 -0.12C-131.68 -0.2 -131.65 -0.33 -131.65 -0.52C-131.65 -1.99 -131.54 -3.62 -131.31 -5.42C-131.31 -5.44 -131.33 -5.47 -131.39 -5.5C-131.45 -5.54 -131.51 -5.55 -131.58 -5.55Z M-104.78 -21.35C-104.78 -21.49 -104.8 -21.56 -104.85 -21.56L-106.4 -21.52C-107.23 -21.48 -107.87 -21.46 -108.33 -21.46C-108.84 -21.46 -109.46 -21.48 -110.19 -21.52L-111.68 -21.56C-111.72 -21.56 -111.75 -21.49 -111.75 -21.35C-111.75 -21.21 -111.72 -21.15 -111.68 -21.15C-110.78 -21.15 -110.08 -20.79 -109.57 -20.08C-109.07 -19.36 -108.81 -18.39 -108.81 -17.14L-108.81 -6L-120.75 -19.77C-120.91 -19.95 -121.19 -20.31 -121.58 -20.83C-121.81 -21.13 -121.97 -21.33 -122.06 -21.42C-122.15 -21.51 -122.29 -21.56 -122.47 -21.56C-122.93 -21.56 -123.33 -21.55 -123.65 -21.52L-126.27 -21.49C-126.84 -21.49 -127.28 -21.5 -127.58 -21.52L-129.03 -21.56C-129.07 -21.56 -129.1 -21.49 -129.1 -21.35C-129.1 -21.21 -129.07 -21.15 -129.03 -21.15C-128.45 -21.15 -127.9 -20.99 -127.36 -20.68C-126.81 -20.37 -126.17 -19.8 -125.41 -18.97L-125.41 -4.38C-125.41 -3.16 -125.7 -2.2 -126.29 -1.48C-126.87 -0.77 -127.67 -0.41 -128.68 -0.41C-128.75 -0.41 -128.79 -0.34 -128.79 -0.21C-128.79 -0.07 -128.75 0 -128.68 0C-127.95 0 -127.38 -0.01 -126.99 -0.03L-124.85 -0.07L-122.99 -0.03C-122.65 -0.01 -122.15 0 -121.51 0C-121.46 0 -121.44 -0.07 -121.44 -0.21C-121.44 -0.34 -121.46 -0.41 -121.51 -0.41C-122.41 -0.41 -123.11 -0.77 -123.61 -1.48C-124.12 -2.2 -124.37 -3.16 -124.37 -4.38L-124.37 -17.8L-108.19 0.62C-108.15 0.67 -108.07 0.68 -107.97 0.66C-107.87 0.63 -107.81 0.59 -107.81 0.52L-107.81 -17.14C-107.81 -18.36 -107.55 -19.33 -107.02 -20.06C-106.49 -20.78 -105.77 -21.15 -104.85 -21.15C-104.8 -21.15 -104.78 -21.21 -104.78 -21.35Z M-95.81 0.03C-94.8 0.1 -93.92 0.14 -93.19 0.14C-91.12 0.14 -89.22 -0.33 -87.48 -1.26C-85.74 -2.19 -84.36 -3.51 -83.34 -5.23C-82.32 -6.94 -81.8 -8.91 -81.8 -11.14C-81.8 -13.12 -82.3 -14.9 -83.29 -16.49C-84.28 -18.08 -85.67 -19.33 -87.48 -20.25C-89.28 -21.17 -91.35 -21.63 -93.67 -21.63C-94.09 -21.63 -94.89 -21.61 -96.09 -21.56C-97.07 -21.49 -98.04 -21.46 -98.98 -21.46C-99.6 -21.46 -100.44 -21.48 -101.5 -21.52L-103.33 -21.56C-103.4 -21.56 -103.43 -21.49 -103.43 -21.35C-103.43 -21.21 -103.4 -21.15 -103.33 -21.15C-102.62 -21.15 -102.09 -21.08 -101.76 -20.96C-101.43 -20.83 -101.2 -20.6 -101.07 -20.28C-100.94 -19.96 -100.88 -19.46 -100.88 -18.77L-100.88 -2.79C-100.88 -2.1 -100.94 -1.59 -101.07 -1.26C-101.2 -0.93 -101.43 -0.7 -101.78 -0.59C-102.12 -0.47 -102.66 -0.41 -103.4 -0.41C-103.44 -0.41 -103.47 -0.34 -103.47 -0.21C-103.47 -0.07 -103.44 0 -103.4 0C-102.62 0 -102 -0.01 -101.54 -0.03L-98.98 -0.07C-98.32 -0.07 -97.71 -0.06 -97.17 -0.03C-96.63 -0.01 -96.18 0.01 -95.81 0.03ZM-89.64 -1.78C-90.76 -1.03 -92.06 -0.66 -93.53 -0.66C-94.91 -0.66 -95.84 -0.85 -96.33 -1.22C-96.81 -1.6 -97.05 -2.25 -97.05 -3.17L-97.05 -18.7C-97.05 -19.59 -96.79 -20.18 -96.26 -20.46C-95.73 -20.73 -94.75 -20.87 -93.33 -20.87C-91.88 -20.87 -90.6 -20.41 -89.5 -19.49C-88.39 -18.57 -87.54 -17.31 -86.94 -15.71C-86.35 -14.11 -86.05 -12.34 -86.05 -10.38C-86.05 -8.34 -86.36 -6.58 -87 -5.11C-87.63 -3.63 -88.51 -2.52 -89.64 -1.78Z M-62.87 -5.55C-62.96 -5.55 -63.01 -5.53 -63.01 -5.48C-63.51 -3.94 -64.3 -2.81 -65.39 -2.07C-66.47 -1.33 -67.9 -0.97 -69.7 -0.97L-70.84 -0.97C-71.39 -0.97 -71.79 -1.13 -72.04 -1.45C-72.3 -1.77 -72.42 -2.27 -72.42 -2.93L-72.42 -10.73L-69.59 -10.73C-68.24 -10.73 -67.2 -10.46 -66.47 -9.92C-65.75 -9.38 -65.39 -8.64 -65.39 -7.69C-65.39 -7.65 -65.32 -7.62 -65.18 -7.62C-65.04 -7.62 -64.97 -7.65 -64.97 -7.69C-64.97 -8.15 -64.99 -8.77 -65.04 -9.56L-65.07 -11.21L-65.04 -14.32C-65.04 -14.38 -65.1 -14.42 -65.23 -14.42C-65.36 -14.42 -65.42 -14.38 -65.42 -14.32C-65.42 -13.49 -65.78 -12.84 -66.49 -12.38C-67.2 -11.92 -68.23 -11.69 -69.56 -11.69L-72.42 -11.69L-72.42 -18.73C-72.42 -19.35 -72.26 -19.81 -71.94 -20.11C-71.62 -20.41 -71.11 -20.56 -70.42 -20.56L-69.39 -20.56C-67.96 -20.56 -66.81 -20.24 -65.94 -19.59C-65.06 -18.95 -64.44 -17.96 -64.07 -16.63C-64.05 -16.56 -63.98 -16.53 -63.85 -16.56C-63.72 -16.58 -63.66 -16.62 -63.66 -16.66L-63.73 -21.25C-63.73 -21.46 -63.84 -21.56 -64.07 -21.56L-78.7 -21.56C-78.77 -21.56 -78.8 -21.49 -78.8 -21.35C-78.8 -21.21 -78.77 -21.15 -78.7 -21.15C-77.99 -21.15 -77.46 -21.08 -77.11 -20.96C-76.77 -20.83 -76.54 -20.6 -76.42 -20.28C-76.31 -19.96 -76.25 -19.46 -76.25 -18.77L-76.25 -2.79C-76.25 -2.1 -76.31 -1.59 -76.42 -1.26C-76.54 -0.93 -76.76 -0.7 -77.1 -0.59C-77.43 -0.47 -77.96 -0.41 -78.7 -0.41C-78.77 -0.41 -78.8 -0.34 -78.8 -0.21C-78.8 -0.07 -78.77 0 -78.7 0L-63.45 0C-63.25 0 -63.11 -0.04 -63.04 -0.12C-62.97 -0.2 -62.94 -0.33 -62.94 -0.52C-62.94 -1.99 -62.82 -3.62 -62.59 -5.42C-62.59 -5.44 -62.62 -5.47 -62.68 -5.5C-62.73 -5.54 -62.8 -5.55 -62.87 -5.55Z M-54.43 -15.87C-54.86 -16.51 -55.07 -17.25 -55.07 -18.08C-55.07 -19.09 -54.78 -19.86 -54.19 -20.39C-53.61 -20.92 -52.85 -21.18 -51.93 -21.18C-50.55 -21.18 -49.48 -20.67 -48.71 -19.66C-47.94 -18.65 -47.26 -17.42 -46.69 -15.97L-46.41 -15.32C-46.39 -15.25 -46.32 -15.23 -46.21 -15.26C-46.09 -15.3 -46.03 -15.35 -46.03 -15.42L-46.03 -20.49C-46.03 -20.65 -46.07 -20.78 -46.14 -20.89C-46.21 -20.99 -46.34 -21.09 -46.55 -21.18C-47.06 -21.39 -47.72 -21.57 -48.55 -21.71C-49.38 -21.86 -50.2 -21.94 -51 -21.94C-52.22 -21.94 -53.38 -21.74 -54.48 -21.34C-55.59 -20.93 -56.49 -20.31 -57.19 -19.47C-57.89 -18.63 -58.24 -17.6 -58.24 -16.39C-58.24 -15.42 -58.03 -14.58 -57.59 -13.87C-57.15 -13.15 -56.63 -12.54 -56.02 -12.04C-55.41 -11.53 -54.55 -10.92 -53.45 -10.21C-52.32 -9.47 -51.44 -8.84 -50.79 -8.31C-50.15 -7.78 -49.6 -7.14 -49.16 -6.38C-48.71 -5.62 -48.48 -4.74 -48.48 -3.73C-48.48 -2.53 -48.78 -1.68 -49.38 -1.19C-49.98 -0.7 -50.74 -0.45 -51.66 -0.45C-52.67 -0.45 -53.57 -0.78 -54.36 -1.45C-55.16 -2.12 -55.81 -2.89 -56.33 -3.76C-56.85 -4.63 -57.45 -5.77 -58.14 -7.17C-58.16 -7.27 -58.23 -7.31 -58.35 -7.3C-58.46 -7.28 -58.52 -7.23 -58.52 -7.14L-58.52 -7.11L-58.42 -1.62C-58.42 -1.44 -58.39 -1.31 -58.33 -1.22C-58.27 -1.14 -58.19 -1.06 -58.07 -0.97C-57.68 -0.62 -56.92 -0.3 -55.8 -0.02C-54.67 0.27 -53.59 0.41 -52.55 0.41C-51.15 0.41 -49.88 0.16 -48.74 -0.36C-47.6 -0.88 -46.71 -1.6 -46.07 -2.54C-45.42 -3.47 -45.1 -4.53 -45.1 -5.73C-45.1 -6.76 -45.34 -7.68 -45.83 -8.47C-46.31 -9.26 -46.9 -9.93 -47.59 -10.49C-48.28 -11.04 -49.2 -11.68 -50.35 -12.42C-51.4 -13.11 -52.24 -13.69 -52.86 -14.18C-53.48 -14.66 -54.01 -15.22 -54.43 -15.87Z M-26.61 0.03C-25.6 0.1 -24.73 0.14 -23.99 0.14C-21.92 0.14 -20.02 -0.33 -18.28 -1.26C-16.55 -2.19 -15.17 -3.51 -14.14 -5.23C-13.12 -6.94 -12.61 -8.91 -12.61 -11.14C-12.61 -13.12 -13.1 -14.9 -14.09 -16.49C-15.08 -18.08 -16.48 -19.33 -18.28 -20.25C-20.09 -21.17 -22.15 -21.63 -24.47 -21.63C-24.89 -21.63 -25.69 -21.61 -26.89 -21.56C-27.88 -21.49 -28.84 -21.46 -29.79 -21.46C-30.41 -21.46 -31.25 -21.48 -32.3 -21.52L-34.13 -21.56C-34.2 -21.56 -34.24 -21.49 -34.24 -21.35C-34.24 -21.21 -34.2 -21.15 -34.13 -21.15C-33.42 -21.15 -32.9 -21.08 -32.56 -20.96C-32.23 -20.83 -32 -20.6 -31.87 -20.28C-31.75 -19.96 -31.68 -19.46 -31.68 -18.77L-31.68 -2.79C-31.68 -2.1 -31.75 -1.59 -31.87 -1.26C-32 -0.93 -32.24 -0.7 -32.58 -0.59C-32.93 -0.47 -33.47 -0.41 -34.2 -0.41C-34.25 -0.41 -34.27 -0.34 -34.27 -0.21C-34.27 -0.07 -34.25 0 -34.2 0C-33.42 0 -32.8 -0.01 -32.34 -0.03L-29.79 -0.07C-29.12 -0.07 -28.52 -0.06 -27.98 -0.03C-27.43 -0.01 -26.98 0.01 -26.61 0.03ZM-20.44 -1.78C-21.57 -1.03 -22.86 -0.66 -24.34 -0.66C-25.72 -0.66 -26.65 -0.85 -27.13 -1.22C-27.61 -1.6 -27.85 -2.25 -27.85 -3.17L-27.85 -18.7C-27.85 -19.59 -27.59 -20.18 -27.06 -20.46C-26.53 -20.73 -25.56 -20.87 -24.13 -20.87C-22.68 -20.87 -21.4 -20.41 -20.3 -19.49C-19.2 -18.57 -18.35 -17.31 -17.75 -15.71C-17.15 -14.11 -16.85 -12.34 -16.85 -10.38C-16.85 -8.34 -17.17 -6.58 -17.8 -5.11C-18.43 -3.63 -19.31 -2.52 -20.44 -1.78Z M6.33 -5.55C6.24 -5.55 6.19 -5.53 6.19 -5.48C5.69 -3.94 4.89 -2.81 3.81 -2.07C2.73 -1.33 1.29 -0.97 -0.5 -0.97L-1.64 -0.97C-2.19 -0.97 -2.59 -1.13 -2.85 -1.45C-3.1 -1.77 -3.23 -2.27 -3.23 -2.93L-3.23 -10.73L-0.4 -10.73C0.96 -10.73 2 -10.46 2.73 -9.92C3.45 -9.38 3.81 -8.64 3.81 -7.69C3.81 -7.65 3.88 -7.62 4.02 -7.62C4.16 -7.62 4.23 -7.65 4.23 -7.69C4.23 -8.15 4.2 -8.77 4.16 -9.56L4.12 -11.21L4.16 -14.32C4.16 -14.38 4.09 -14.42 3.97 -14.42C3.84 -14.42 3.78 -14.38 3.78 -14.32C3.78 -13.49 3.42 -12.84 2.71 -12.38C1.99 -11.92 0.97 -11.69 -0.36 -11.69L-3.23 -11.69L-3.23 -18.73C-3.23 -19.35 -3.06 -19.81 -2.74 -20.11C-2.42 -20.41 -1.91 -20.56 -1.22 -20.56L-0.19 -20.56C1.24 -20.56 2.39 -20.24 3.26 -19.59C4.13 -18.95 4.75 -17.96 5.12 -16.63C5.15 -16.56 5.22 -16.53 5.35 -16.56C5.47 -16.58 5.54 -16.62 5.54 -16.66L5.47 -21.25C5.47 -21.46 5.35 -21.56 5.12 -21.56L-9.5 -21.56C-9.57 -21.56 -9.61 -21.49 -9.61 -21.35C-9.61 -21.21 -9.57 -21.15 -9.5 -21.15C-8.79 -21.15 -8.26 -21.08 -7.92 -20.96C-7.57 -20.83 -7.34 -20.6 -7.23 -20.28C-7.11 -19.96 -7.05 -19.46 -7.05 -18.77L-7.05 -2.79C-7.05 -2.1 -7.11 -1.59 -7.23 -1.26C-7.34 -0.93 -7.57 -0.7 -7.9 -0.59C-8.23 -0.47 -8.77 -0.41 -9.5 -0.41C-9.57 -0.41 -9.61 -0.34 -9.61 -0.21C-9.61 -0.07 -9.57 0 -9.5 0L5.74 0C5.95 0 6.09 -0.04 6.16 -0.12C6.23 -0.2 6.26 -0.33 6.26 -0.52C6.26 -1.99 6.38 -3.62 6.61 -5.42C6.61 -5.44 6.58 -5.47 6.52 -5.5C6.46 -5.54 6.4 -5.55 6.33 -5.55Z M15.47 -2.93L15.47 -18.73C15.47 -19.42 15.53 -19.93 15.64 -20.27C15.76 -20.6 15.99 -20.83 16.33 -20.96C16.68 -21.08 17.21 -21.15 17.92 -21.15C17.99 -21.15 18.02 -21.21 18.02 -21.35C18.02 -21.49 17.99 -21.56 17.92 -21.56L16.16 -21.52C15.1 -21.48 14.23 -21.46 13.54 -21.46C12.85 -21.46 11.98 -21.48 10.92 -21.52L9.16 -21.56C9.11 -21.56 9.09 -21.49 9.09 -21.35C9.09 -21.21 9.11 -21.15 9.16 -21.15C9.87 -21.15 10.4 -21.08 10.75 -20.96C11.09 -20.83 11.33 -20.6 11.45 -20.28C11.58 -19.96 11.64 -19.46 11.64 -18.77L11.64 -2.79C11.64 -2.1 11.58 -1.59 11.45 -1.26C11.33 -0.93 11.1 -0.7 10.76 -0.59C10.43 -0.47 9.89 -0.41 9.16 -0.41C9.11 -0.41 9.09 -0.34 9.09 -0.21C9.09 -0.07 9.11 0 9.16 0L25.44 0C25.62 0 25.76 -0.04 25.84 -0.12C25.92 -0.2 25.96 -0.33 25.96 -0.52C25.96 -2.04 26.06 -3.93 26.27 -6.21C26.27 -6.23 26.24 -6.26 26.18 -6.3C26.12 -6.33 26.07 -6.35 26.03 -6.35C25.93 -6.35 25.89 -6.32 25.89 -6.28C25.45 -4.65 24.58 -3.35 23.27 -2.4C21.96 -1.44 20.4 -0.97 18.61 -0.97L17.44 -0.97C16.84 -0.97 16.41 -1.01 16.14 -1.1C15.88 -1.2 15.7 -1.37 15.61 -1.64C15.52 -1.9 15.47 -2.33 15.47 -2.93Z M53.85 -20.08C54.41 -19.36 54.69 -18.39 54.69 -17.14L54.69 -7.52C54.69 -5.36 54.15 -3.7 53.07 -2.54C51.99 -1.37 50.49 -0.79 48.59 -0.79C46.61 -0.79 45.08 -1.45 44 -2.76C42.92 -4.07 42.38 -6.09 42.38 -8.83L42.38 -18.7C42.38 -19.39 42.44 -19.9 42.57 -20.23C42.69 -20.56 42.92 -20.8 43.26 -20.94C43.59 -21.08 44.11 -21.15 44.83 -21.15C44.9 -21.15 44.93 -21.21 44.93 -21.35C44.93 -21.49 44.9 -21.56 44.83 -21.56L43.07 -21.52C42.01 -21.48 41.14 -21.46 40.45 -21.46C39.82 -21.46 38.99 -21.48 37.93 -21.52L36.1 -21.56C36.03 -21.56 36 -21.49 36 -21.35C36 -21.21 36.03 -21.15 36.1 -21.15C36.81 -21.15 37.34 -21.08 37.67 -20.96C38 -20.83 38.23 -20.6 38.36 -20.28C38.48 -19.96 38.55 -19.46 38.55 -18.77L38.55 -7.62C38.55 -5.97 38.92 -4.52 39.67 -3.29C40.42 -2.06 41.45 -1.13 42.76 -0.48C44.07 0.16 45.57 0.48 47.28 0.48C48.98 0.48 50.48 0.16 51.78 -0.5C53.08 -1.16 54.08 -2.09 54.8 -3.31C55.51 -4.53 55.86 -5.94 55.86 -7.55L55.86 -17.14C55.86 -18.39 56.12 -19.36 56.62 -20.08C57.13 -20.79 57.83 -21.15 58.73 -21.15C58.77 -21.15 58.8 -21.21 58.8 -21.35C58.8 -21.49 58.77 -21.56 58.73 -21.56L57.14 -21.52C56.31 -21.48 55.68 -21.46 55.24 -21.46C54.71 -21.46 54.01 -21.48 53.14 -21.52L51.48 -21.56C51.44 -21.56 51.41 -21.49 51.41 -21.35C51.41 -21.21 51.44 -21.15 51.48 -21.15C52.5 -21.15 53.28 -20.79 53.85 -20.08Z M83.74 -0.21C83.74 -0.34 83.71 -0.41 83.67 -0.41C82.75 -0.41 81.8 -0.79 80.82 -1.54C79.84 -2.28 78.73 -3.47 77.48 -5.11C76.22 -6.74 74.68 -9 72.84 -11.9C73.87 -12.5 74.71 -13.28 75.35 -14.25C76 -15.21 76.32 -16.22 76.32 -17.28C76.32 -18.66 75.74 -19.74 74.58 -20.51C73.42 -21.28 71.78 -21.66 69.66 -21.66C69.11 -21.66 68.63 -21.65 68.23 -21.63C67.83 -21.61 67.5 -21.58 67.25 -21.56C66.44 -21.49 65.71 -21.46 65.04 -21.46C64.42 -21.46 63.58 -21.48 62.52 -21.52L60.69 -21.56C60.65 -21.56 60.62 -21.49 60.62 -21.35C60.62 -21.21 60.65 -21.15 60.69 -21.15C61.41 -21.15 61.94 -21.08 62.28 -20.96C62.63 -20.83 62.86 -20.6 62.97 -20.28C63.09 -19.96 63.14 -19.46 63.14 -18.77L63.14 -2.79C63.14 -2.1 63.08 -1.59 62.95 -1.26C62.83 -0.93 62.6 -0.7 62.26 -0.59C61.93 -0.47 61.4 -0.41 60.66 -0.41C60.59 -0.41 60.56 -0.34 60.56 -0.21C60.56 -0.07 60.59 0 60.66 0C61.44 0 62.06 -0.01 62.52 -0.03L65.04 -0.07L67.66 -0.03C68.1 -0.01 68.7 0 69.46 0C69.5 0 69.52 -0.07 69.52 -0.21C69.52 -0.34 69.5 -0.41 69.46 -0.41C68.72 -0.41 68.19 -0.47 67.85 -0.59C67.52 -0.7 67.29 -0.92 67.18 -1.24C67.06 -1.56 67.01 -2.08 67.01 -2.79L67.01 -10.8C67.37 -10.77 68.01 -10.76 68.9 -10.76C69.25 -10.76 69.51 -10.77 69.7 -10.8C71.65 -7.39 73.32 -4.74 74.7 -2.85C76.08 -0.95 77.02 0 77.53 0L83.67 0C83.71 0 83.74 -0.07 83.74 -0.21ZM69.01 -11.66C68.23 -11.66 67.56 -11.71 67.01 -11.8L67.01 -18.7C67.01 -19.5 67.17 -20.08 67.49 -20.42C67.81 -20.77 68.36 -20.94 69.15 -20.94C70.18 -20.94 70.97 -20.58 71.53 -19.87C72.08 -19.16 72.35 -17.86 72.35 -15.97C72.35 -14.84 72.24 -13.97 72.03 -13.35C71.81 -12.73 71.46 -12.29 70.97 -12.04C70.49 -11.79 69.84 -11.66 69.01 -11.66Z M100.35 -20.08C100.91 -19.36 101.19 -18.39 101.19 -17.14L101.19 -7.52C101.19 -5.36 100.65 -3.7 99.57 -2.54C98.49 -1.37 96.99 -0.79 95.09 -0.79C93.11 -0.79 91.58 -1.45 90.5 -2.76C89.42 -4.07 88.88 -6.09 88.88 -8.83L88.88 -18.7C88.88 -19.39 88.94 -19.9 89.07 -20.23C89.19 -20.56 89.42 -20.8 89.76 -20.94C90.09 -21.08 90.61 -21.15 91.33 -21.15C91.39 -21.15 91.43 -21.21 91.43 -21.35C91.43 -21.49 91.39 -21.56 91.33 -21.56L89.57 -21.52C88.51 -21.48 87.63 -21.46 86.94 -21.46C86.32 -21.46 85.48 -21.48 84.43 -21.52L82.6 -21.56C82.53 -21.56 82.49 -21.49 82.49 -21.35C82.49 -21.21 82.53 -21.15 82.6 -21.15C83.31 -21.15 83.83 -21.08 84.17 -20.96C84.5 -20.83 84.73 -20.6 84.86 -20.28C84.98 -19.96 85.05 -19.46 85.05 -18.77L85.05 -7.62C85.05 -5.97 85.42 -4.52 86.17 -3.29C86.92 -2.06 87.94 -1.13 89.26 -0.48C90.57 0.16 92.07 0.48 93.77 0.48C95.48 0.48 96.98 0.16 98.28 -0.5C99.58 -1.16 100.58 -2.09 101.29 -3.31C102.01 -4.53 102.36 -5.94 102.36 -7.55L102.36 -17.14C102.36 -18.39 102.62 -19.36 103.12 -20.08C103.63 -20.79 104.33 -21.15 105.23 -21.15C105.27 -21.15 105.3 -21.21 105.3 -21.35C105.3 -21.49 105.27 -21.56 105.23 -21.56L103.64 -21.52C102.81 -21.48 102.18 -21.46 101.74 -21.46C101.21 -21.46 100.51 -21.48 99.64 -21.52L97.98 -21.56C97.94 -21.56 97.91 -21.49 97.91 -21.35C97.91 -21.21 97.94 -21.15 97.98 -21.15C98.99 -21.15 99.78 -20.79 100.35 -20.08Z M113.23 -1.03C115.12 -0.07 117.32 0.41 119.85 0.41C122.22 0.41 124.89 0.09 127.86 -0.55C128.02 -0.6 128.13 -0.64 128.18 -0.69C128.24 -0.74 128.27 -0.83 128.27 -0.97C128.27 -1.08 128.23 -1.36 128.15 -1.79C128.07 -2.23 128.03 -2.97 128.03 -4C128.03 -5.34 128.05 -6.26 128.1 -6.78C128.14 -7.3 128.25 -7.64 128.41 -7.81C128.57 -7.99 128.86 -8.06 129.27 -8.04C129.38 -8.04 129.44 -8.12 129.44 -8.28C129.44 -8.32 129.43 -8.38 129.39 -8.43C129.36 -8.49 129.32 -8.52 129.27 -8.52C128.01 -8.45 126.79 -8.42 125.61 -8.42C124.42 -8.42 122.84 -8.47 120.89 -8.59C120.84 -8.59 120.8 -8.56 120.77 -8.5C120.73 -8.45 120.72 -8.38 120.72 -8.31C120.72 -8.13 120.78 -8.04 120.92 -8.04C122.03 -8.04 122.8 -7.96 123.25 -7.8C123.7 -7.63 123.99 -7.32 124.13 -6.85C124.27 -6.38 124.34 -5.54 124.34 -4.35C124.34 -3.17 124.22 -2.29 123.99 -1.69C123.76 -1.09 123.39 -0.69 122.89 -0.48C122.38 -0.28 121.66 -0.17 120.72 -0.17C118.99 -0.17 117.43 -0.66 116.04 -1.64C114.65 -2.62 113.56 -4 112.78 -5.78C112 -7.56 111.61 -9.59 111.61 -11.87C111.61 -14.69 112.22 -16.93 113.45 -18.56C114.68 -20.19 116.47 -21.01 118.82 -21.01C120.63 -21.01 122.25 -20.51 123.66 -19.52C125.08 -18.54 126.19 -17.16 126.99 -15.38C127.04 -15.29 127.12 -15.26 127.23 -15.28C127.35 -15.3 127.41 -15.35 127.41 -15.42L126.96 -20.21C126.94 -20.47 126.9 -20.65 126.84 -20.75C126.78 -20.85 126.65 -20.94 126.44 -21.01C125.77 -21.28 124.89 -21.51 123.79 -21.68C122.68 -21.85 121.59 -21.94 120.51 -21.94C118.05 -21.94 115.82 -21.46 113.83 -20.51C111.84 -19.55 110.28 -18.21 109.14 -16.47C108 -14.74 107.43 -12.76 107.43 -10.56C107.43 -8.51 107.93 -6.65 108.92 -4.98C109.91 -3.32 111.34 -2 113.23 -1.03Z M149.4 -20.08C149.96 -19.36 150.24 -18.39 150.24 -17.14L150.24 -7.52C150.24 -5.36 149.7 -3.7 148.62 -2.54C147.54 -1.37 146.05 -0.79 144.14 -0.79C142.16 -0.79 140.63 -1.45 139.55 -2.76C138.47 -4.07 137.93 -6.09 137.93 -8.83L137.93 -18.7C137.93 -19.39 137.99 -19.9 138.12 -20.23C138.24 -20.56 138.47 -20.8 138.81 -20.94C139.14 -21.08 139.66 -21.15 140.38 -21.15C140.45 -21.15 140.48 -21.21 140.48 -21.35C140.48 -21.49 140.45 -21.56 140.38 -21.56L138.62 -21.52C137.56 -21.48 136.69 -21.46 136 -21.46C135.38 -21.46 134.54 -21.48 133.48 -21.52L131.65 -21.56C131.58 -21.56 131.55 -21.49 131.55 -21.35C131.55 -21.21 131.58 -21.15 131.65 -21.15C132.36 -21.15 132.89 -21.08 133.22 -20.96C133.55 -20.83 133.78 -20.6 133.91 -20.28C134.04 -19.96 134.1 -19.46 134.1 -18.77L134.1 -7.62C134.1 -5.97 134.47 -4.52 135.22 -3.29C135.97 -2.06 137 -1.13 138.31 -0.48C139.62 0.16 141.12 0.48 142.83 0.48C144.53 0.48 146.03 0.16 147.33 -0.5C148.63 -1.16 149.63 -2.09 150.35 -3.31C151.06 -4.53 151.42 -5.94 151.42 -7.55L151.42 -17.14C151.42 -18.39 151.67 -19.36 152.17 -20.08C152.68 -20.79 153.38 -21.15 154.28 -21.15C154.32 -21.15 154.35 -21.21 154.35 -21.35C154.35 -21.49 154.32 -21.56 154.28 -21.56L152.69 -21.52C151.86 -21.48 151.23 -21.46 150.79 -21.46C150.27 -21.46 149.56 -21.48 148.69 -21.52L147.03 -21.56C146.99 -21.56 146.97 -21.49 146.97 -21.35C146.97 -21.21 146.99 -21.15 147.03 -21.15C148.05 -21.15 148.83 -20.79 149.4 -20.08Z M178.08 -0.21C178.08 -0.34 178.02 -0.41 177.91 -0.41C177.33 -0.41 176.78 -0.72 176.25 -1.35C175.72 -1.97 175.06 -3.09 174.25 -4.73L165.63 -21.7C165.6 -21.77 165.5 -21.8 165.32 -21.8C165.16 -21.8 165.05 -21.77 165.01 -21.7L157.52 -5.24C156.92 -3.91 156.41 -2.9 155.97 -2.22C155.53 -1.55 155.1 -1.08 154.66 -0.81C154.22 -0.55 153.68 -0.41 153.04 -0.41C152.94 -0.41 152.9 -0.34 152.9 -0.21C152.9 -0.07 152.94 0 153.04 0C153.52 0 154.15 -0.02 154.93 -0.07C155.81 -0.11 156.56 -0.14 157.18 -0.14C157.82 -0.14 158.58 -0.11 159.45 -0.07C160.23 -0.02 160.83 0 161.25 0C161.36 0 161.42 -0.07 161.42 -0.21C161.42 -0.34 161.36 -0.41 161.25 -0.41C160.26 -0.41 159.47 -0.64 158.88 -1.1C158.3 -1.56 158 -2.21 158 -3.04C158 -3.61 158.15 -4.23 158.45 -4.9L160.9 -10.31L167.04 -10.31L170.63 -3.24C171.09 -2.32 171.32 -1.67 171.32 -1.28C171.32 -0.95 171.19 -0.73 170.92 -0.6C170.66 -0.48 170.23 -0.41 169.63 -0.41C169.54 -0.41 169.49 -0.34 169.49 -0.21C169.49 -0.07 169.54 0 169.63 0C170.09 0 170.71 -0.02 171.49 -0.07C172.32 -0.11 173.02 -0.14 173.6 -0.14C174.03 -0.14 174.76 -0.11 175.77 -0.07C176.73 -0.02 177.45 0 177.91 0C178.02 0 178.08 -0.07 178.08 -0.21ZM161.35 -11.28L163.8 -16.73L166.56 -11.28Z M197.67 -21.35C197.67 -21.49 197.65 -21.56 197.6 -21.56L196.33 -21.52C195.78 -21.48 195.3 -21.46 194.91 -21.46C194.09 -21.46 193.14 -21.48 192.09 -21.52L190.26 -21.56C190.19 -21.56 190.15 -21.49 190.15 -21.35C190.15 -21.21 190.19 -21.15 190.26 -21.15C190.88 -21.15 191.36 -21 191.69 -20.71C192.02 -20.43 192.19 -20.01 192.19 -19.46C192.19 -18.72 191.88 -17.83 191.26 -16.8L188.08 -11.38L183.36 -18.83C183.04 -19.34 182.88 -19.78 182.88 -20.15C182.88 -20.44 182.98 -20.69 183.2 -20.87C183.42 -21.05 183.73 -21.15 184.12 -21.15C184.16 -21.15 184.19 -21.21 184.19 -21.35C184.19 -21.49 184.16 -21.56 184.12 -21.56L181.84 -21.52C180.32 -21.48 179.16 -21.46 178.36 -21.46C178.15 -21.46 177.79 -21.48 177.29 -21.52L176.22 -21.56C176.15 -21.56 176.11 -21.49 176.11 -21.35C176.11 -21.21 176.15 -21.15 176.22 -21.15C176.61 -21.15 177.09 -20.89 177.65 -20.37C178.21 -19.85 178.92 -18.93 179.77 -17.59L184.81 -9.76L184.81 -2.79C184.81 -2.1 184.74 -1.59 184.62 -1.26C184.49 -0.93 184.25 -0.7 183.91 -0.59C183.56 -0.47 183.02 -0.41 182.29 -0.41C182.24 -0.41 182.22 -0.34 182.22 -0.21C182.22 -0.07 182.24 0 182.29 0C183.07 0 183.69 -0.01 184.15 -0.03L186.7 -0.07L189.29 -0.03C189.73 -0.01 190.33 0 191.08 0C191.15 0 191.19 -0.07 191.19 -0.21C191.19 -0.34 191.15 -0.41 191.08 -0.41C190.35 -0.41 189.81 -0.47 189.48 -0.59C189.15 -0.7 188.92 -0.92 188.81 -1.24C188.69 -1.56 188.64 -2.08 188.64 -2.79L188.64 -10.49L192.22 -16.49C193.03 -17.82 193.95 -18.93 194.98 -19.82C196.02 -20.7 196.89 -21.15 197.6 -21.15C197.65 -21.15 197.67 -21.21 197.67 -21.35Z"></path></g><rect id="SvgjsRect9192" width="116.80856518504407" height="1.1498320677745202" fill="#29292e" transform="translate(0, 144.43492948407152) scale(1)" light-content="false"></rect><g id="SvgjsG9193" class="text" transform="translate(196.65772552391667, 149.8794891364143) scale(1)" light-content="false" fill="#29292e"><path d="M-69.11 -1.25C-69.6 -1.25 -70.05 -1.35 -70.46 -1.54C-70.86 -1.72 -71.22 -2 -71.51 -2.35C-71.81 -2.7 -72.04 -3.13 -72.21 -3.64C-72.37 -4.15 -72.46 -4.72 -72.46 -5.36C-72.46 -6.23 -72.33 -7.03 -72.09 -7.74C-71.85 -8.44 -71.51 -9.04 -71.09 -9.54C-70.66 -10.04 -70.16 -10.42 -69.58 -10.69C-69 -10.96 -68.37 -11.09 -67.7 -11.09C-67.2 -11.09 -66.8 -11.03 -66.48 -10.92C-66.17 -10.8 -65.92 -10.68 -65.72 -10.54C-65.52 -10.41 -65.36 -10.28 -65.25 -10.17C-65.13 -10.05 -65.02 -9.99 -64.92 -9.99C-64.83 -9.99 -64.76 -10.01 -64.7 -10.05C-64.65 -10.09 -64.59 -10.14 -64.55 -10.19L-64 -10.87C-64.2 -11.11 -64.43 -11.34 -64.67 -11.54C-64.9 -11.74 -65.17 -11.91 -65.46 -12.06C-65.76 -12.2 -66.08 -12.31 -66.44 -12.38C-66.79 -12.46 -67.19 -12.5 -67.63 -12.5C-68.54 -12.5 -69.38 -12.32 -70.17 -11.97C-70.96 -11.61 -71.64 -11.11 -72.23 -10.47C-72.81 -9.83 -73.27 -9.07 -73.6 -8.18C-73.94 -7.28 -74.1 -6.3 -74.1 -5.23C-74.1 -4.44 -74 -3.72 -73.78 -3.06C-73.56 -2.41 -73.25 -1.84 -72.85 -1.37C-72.44 -0.89 -71.95 -0.52 -71.36 -0.26C-70.78 0.01 -70.11 0.14 -69.38 0.14C-68.44 0.14 -67.62 -0.02 -66.92 -0.35C-66.21 -0.67 -65.59 -1.13 -65.05 -1.72L-65.61 -2.41C-65.63 -2.44 -65.66 -2.47 -65.7 -2.49C-65.73 -2.51 -65.77 -2.52 -65.83 -2.52C-65.89 -2.52 -65.96 -2.49 -66.04 -2.42C-66.12 -2.36 -66.22 -2.28 -66.34 -2.19C-66.46 -2.1 -66.59 -2 -66.75 -1.88C-66.91 -1.77 -67.1 -1.67 -67.33 -1.58C-67.55 -1.49 -67.81 -1.41 -68.1 -1.35C-68.39 -1.28 -68.73 -1.25 -69.11 -1.25Z M-57.29 0L-56.24 -8.45C-56.59 -8.6 -56.94 -8.71 -57.29 -8.77C-57.65 -8.83 -58.01 -8.86 -58.38 -8.86C-58.9 -8.86 -59.39 -8.78 -59.87 -8.64C-60.34 -8.49 -60.78 -8.28 -61.19 -8.02C-61.6 -7.75 -61.97 -7.43 -62.31 -7.07C-62.64 -6.7 -62.93 -6.3 -63.16 -5.86C-63.4 -5.43 -63.59 -4.96 -63.72 -4.47C-63.85 -3.98 -63.91 -3.48 -63.91 -2.96C-63.91 -2.46 -63.86 -2.03 -63.75 -1.64C-63.64 -1.26 -63.48 -0.94 -63.29 -0.68C-63.09 -0.42 -62.85 -0.22 -62.57 -0.08C-62.28 0.05 -61.97 0.12 -61.63 0.12C-61.31 0.12 -61 0.06 -60.71 -0.05C-60.42 -0.17 -60.14 -0.33 -59.87 -0.54C-59.6 -0.75 -59.35 -1 -59.11 -1.3C-58.87 -1.6 -58.65 -1.93 -58.44 -2.3L-58.6 -0.53C-58.6 -0.39 -58.56 -0.26 -58.49 -0.16C-58.42 -0.05 -58.28 0 -58.08 0ZM-61.05 -1.16C-61.93 -1.16 -62.38 -1.85 -62.38 -3.23C-62.38 -3.63 -62.33 -4.02 -62.24 -4.39C-62.15 -4.77 -62.02 -5.13 -61.85 -5.46C-61.69 -5.79 -61.49 -6.1 -61.26 -6.38C-61.03 -6.66 -60.78 -6.9 -60.5 -7.1C-60.21 -7.3 -59.91 -7.46 -59.59 -7.57C-59.27 -7.68 -58.93 -7.74 -58.59 -7.74C-58.47 -7.74 -58.35 -7.73 -58.22 -7.72C-58.1 -7.71 -57.97 -7.7 -57.85 -7.67L-58.22 -4.67C-58.38 -4.15 -58.57 -3.68 -58.78 -3.26C-58.98 -2.83 -59.21 -2.46 -59.45 -2.15C-59.69 -1.84 -59.95 -1.59 -60.22 -1.42C-60.49 -1.24 -60.77 -1.16 -61.05 -1.16Z M-55 0L-53.47 0L-52.97 -4.44C-52.81 -4.92 -52.61 -5.35 -52.38 -5.74C-52.16 -6.13 -51.91 -6.46 -51.65 -6.73C-51.38 -7 -51.11 -7.22 -50.82 -7.36C-50.54 -7.51 -50.26 -7.59 -49.98 -7.59C-49.61 -7.59 -49.33 -7.48 -49.16 -7.25C-48.98 -7.02 -48.9 -6.67 -48.9 -6.2C-48.9 -6.1 -48.9 -6 -48.91 -5.89C-48.92 -5.79 -48.93 -5.68 -48.94 -5.56L-49.6 0L-48.06 0L-47.4 -5.56C-47.39 -5.69 -47.38 -5.82 -47.37 -5.94C-47.36 -6.06 -47.36 -6.18 -47.36 -6.3C-47.36 -7.13 -47.54 -7.77 -47.9 -8.21C-48.26 -8.65 -48.76 -8.87 -49.41 -8.87C-50.04 -8.87 -50.65 -8.67 -51.23 -8.28C-51.81 -7.89 -52.34 -7.31 -52.8 -6.54L-52.67 -8.23C-52.67 -8.57 -52.85 -8.74 -53.19 -8.74L-53.96 -8.74Z M-39.51 0L-38.46 -8.45C-38.81 -8.6 -39.16 -8.71 -39.51 -8.77C-39.86 -8.83 -40.23 -8.86 -40.6 -8.86C-41.12 -8.86 -41.61 -8.78 -42.08 -8.64C-42.56 -8.49 -43 -8.28 -43.41 -8.02C-43.82 -7.75 -44.19 -7.43 -44.52 -7.07C-44.86 -6.7 -45.14 -6.3 -45.38 -5.86C-45.62 -5.43 -45.8 -4.96 -45.93 -4.47C-46.06 -3.98 -46.13 -3.48 -46.13 -2.96C-46.13 -2.46 -46.07 -2.03 -45.96 -1.64C-45.86 -1.26 -45.7 -0.94 -45.5 -0.68C-45.3 -0.42 -45.06 -0.22 -44.78 -0.08C-44.5 0.05 -44.19 0.12 -43.84 0.12C-43.53 0.12 -43.22 0.06 -42.93 -0.05C-42.64 -0.17 -42.36 -0.33 -42.09 -0.54C-41.82 -0.75 -41.57 -1 -41.33 -1.3C-41.09 -1.6 -40.87 -1.93 -40.66 -2.3L-40.82 -0.53C-40.82 -0.39 -40.78 -0.26 -40.71 -0.16C-40.64 -0.05 -40.5 0 -40.3 0ZM-43.27 -1.16C-44.15 -1.16 -44.59 -1.85 -44.59 -3.23C-44.59 -3.63 -44.55 -4.02 -44.46 -4.39C-44.36 -4.77 -44.24 -5.13 -44.07 -5.46C-43.91 -5.79 -43.71 -6.1 -43.48 -6.38C-43.25 -6.66 -43 -6.9 -42.71 -7.1C-42.43 -7.3 -42.13 -7.46 -41.81 -7.57C-41.49 -7.68 -41.15 -7.74 -40.81 -7.74C-40.69 -7.74 -40.56 -7.73 -40.44 -7.72C-40.32 -7.71 -40.19 -7.7 -40.07 -7.67L-40.44 -4.67C-40.6 -4.15 -40.78 -3.68 -40.99 -3.26C-41.2 -2.83 -41.43 -2.46 -41.67 -2.15C-41.91 -1.84 -42.17 -1.59 -42.44 -1.42C-42.71 -1.24 -42.98 -1.16 -43.27 -1.16Z M-37.07 0L-35.56 0L-34.02 -12.7L-35.53 -12.7Z M-30.36 -8.74L-31.86 -8.74L-32.92 0L-31.41 0ZM-29.78 -11.48C-29.78 -11.63 -29.81 -11.77 -29.86 -11.91C-29.92 -12.04 -30 -12.16 -30.1 -12.26C-30.2 -12.36 -30.32 -12.44 -30.44 -12.5C-30.57 -12.55 -30.7 -12.58 -30.84 -12.58C-30.97 -12.58 -31.1 -12.55 -31.23 -12.49C-31.35 -12.43 -31.47 -12.35 -31.56 -12.25C-31.66 -12.15 -31.74 -12.03 -31.8 -11.9C-31.85 -11.77 -31.88 -11.63 -31.88 -11.48C-31.88 -11.33 -31.85 -11.19 -31.8 -11.06C-31.74 -10.93 -31.66 -10.82 -31.57 -10.71C-31.47 -10.61 -31.36 -10.54 -31.24 -10.48C-31.11 -10.42 -30.98 -10.39 -30.85 -10.39C-30.71 -10.39 -30.58 -10.42 -30.45 -10.48C-30.32 -10.54 -30.21 -10.61 -30.11 -10.71C-30.01 -10.82 -29.93 -10.93 -29.87 -11.06C-29.81 -11.19 -29.78 -11.33 -29.78 -11.48Z M-22.22 -8.08L-22.15 -8.74L-28.2 -8.74L-28.35 -7.53L-24.1 -7.53L-29.17 -1.19C-29.23 -1.1 -29.29 -1 -29.34 -0.9C-29.39 -0.8 -29.42 -0.71 -29.43 -0.64L-29.51 0L-23.35 0L-23.22 -1.2L-27.53 -1.2L-22.49 -7.49C-22.43 -7.57 -22.37 -7.67 -22.32 -7.77C-22.27 -7.87 -22.23 -7.97 -22.22 -8.08Z M-15.1 0L-14.06 -8.45C-14.4 -8.6 -14.75 -8.71 -15.1 -8.77C-15.46 -8.83 -15.82 -8.86 -16.2 -8.86C-16.71 -8.86 -17.21 -8.78 -17.68 -8.64C-18.15 -8.49 -18.59 -8.28 -19 -8.02C-19.41 -7.75 -19.79 -7.43 -20.12 -7.07C-20.45 -6.7 -20.74 -6.3 -20.98 -5.86C-21.22 -5.43 -21.4 -4.96 -21.53 -4.47C-21.66 -3.98 -21.72 -3.48 -21.72 -2.96C-21.72 -2.46 -21.67 -2.03 -21.56 -1.64C-21.45 -1.26 -21.3 -0.94 -21.1 -0.68C-20.9 -0.42 -20.66 -0.22 -20.38 -0.08C-20.1 0.05 -19.78 0.12 -19.44 0.12C-19.12 0.12 -18.82 0.06 -18.52 -0.05C-18.23 -0.17 -17.95 -0.33 -17.68 -0.54C-17.42 -0.75 -17.16 -1 -16.92 -1.3C-16.69 -1.6 -16.46 -1.93 -16.26 -2.3L-16.41 -0.53C-16.41 -0.39 -16.38 -0.26 -16.3 -0.16C-16.23 -0.05 -16.09 0 -15.89 0ZM-18.86 -1.16C-19.75 -1.16 -20.19 -1.85 -20.19 -3.23C-20.19 -3.63 -20.14 -4.02 -20.05 -4.39C-19.96 -4.77 -19.83 -5.13 -19.67 -5.46C-19.5 -5.79 -19.31 -6.1 -19.08 -6.38C-18.85 -6.66 -18.59 -6.9 -18.31 -7.1C-18.03 -7.3 -17.72 -7.46 -17.4 -7.57C-17.08 -7.68 -16.75 -7.74 -16.4 -7.74C-16.28 -7.74 -16.16 -7.73 -16.04 -7.72C-15.91 -7.71 -15.79 -7.7 -15.66 -7.67L-16.03 -4.67C-16.19 -4.15 -16.38 -3.68 -16.59 -3.26C-16.8 -2.83 -17.02 -2.46 -17.26 -2.15C-17.51 -1.84 -17.76 -1.59 -18.03 -1.42C-18.3 -1.24 -18.58 -1.16 -18.86 -1.16Z M-6.91 0L-6.11 0L-4.54 -12.7L-6.05 -12.7L-6.65 -7.9C-6.9 -8.21 -7.2 -8.45 -7.55 -8.62C-7.9 -8.78 -8.29 -8.87 -8.72 -8.87C-9.12 -8.87 -9.51 -8.79 -9.87 -8.63C-10.24 -8.48 -10.58 -8.26 -10.9 -7.99C-11.21 -7.72 -11.49 -7.4 -11.75 -7.03C-12.01 -6.66 -12.22 -6.26 -12.41 -5.83C-12.59 -5.4 -12.73 -4.95 -12.82 -4.48C-12.92 -4 -12.97 -3.53 -12.97 -3.06C-12.97 -2.03 -12.76 -1.24 -12.35 -0.69C-11.94 -0.15 -11.36 0.12 -10.62 0.12C-10.3 0.12 -9.99 0.06 -9.68 -0.06C-9.37 -0.17 -9.08 -0.34 -8.79 -0.56C-8.51 -0.77 -8.24 -1.03 -7.98 -1.34C-7.72 -1.64 -7.48 -1.98 -7.26 -2.35L-7.43 -0.53C-7.43 -0.39 -7.39 -0.26 -7.32 -0.16C-7.25 -0.05 -7.11 0 -6.91 0ZM-10.04 -1.11C-10.49 -1.11 -10.83 -1.29 -11.08 -1.65C-11.33 -2.01 -11.45 -2.53 -11.45 -3.22C-11.45 -3.73 -11.38 -4.25 -11.25 -4.78C-11.11 -5.31 -10.91 -5.79 -10.65 -6.21C-10.4 -6.64 -10.09 -6.99 -9.72 -7.26C-9.36 -7.53 -8.95 -7.67 -8.49 -7.67C-8.18 -7.67 -7.88 -7.6 -7.57 -7.48C-7.27 -7.35 -7.01 -7.13 -6.79 -6.83L-7.07 -4.52C-7.24 -4.02 -7.44 -3.57 -7.66 -3.15C-7.89 -2.74 -8.13 -2.38 -8.4 -2.07C-8.66 -1.77 -8.93 -1.54 -9.21 -1.37C-9.48 -1.2 -9.76 -1.11 -10.04 -1.11Z M-0.49 -1.08C-1.1 -1.08 -1.55 -1.28 -1.87 -1.69C-2.18 -2.11 -2.34 -2.71 -2.34 -3.52C-2.34 -4.06 -2.27 -4.59 -2.14 -5.09C-2.01 -5.59 -1.82 -6.03 -1.58 -6.41C-1.34 -6.79 -1.04 -7.1 -0.7 -7.33C-0.36 -7.55 0.02 -7.67 0.45 -7.67C1.05 -7.67 1.5 -7.46 1.82 -7.05C2.14 -6.65 2.29 -6.04 2.29 -5.23C2.29 -4.69 2.23 -4.17 2.1 -3.67C1.96 -3.16 1.78 -2.72 1.54 -2.34C1.29 -1.96 1 -1.65 0.66 -1.42C0.31 -1.19 -0.07 -1.08 -0.49 -1.08ZM-0.63 0.12C0 0.12 0.58 -0.02 1.13 -0.31C1.68 -0.59 2.15 -0.98 2.55 -1.47C2.95 -1.95 3.26 -2.52 3.49 -3.17C3.72 -3.82 3.84 -4.51 3.84 -5.24C3.84 -5.81 3.76 -6.32 3.6 -6.77C3.44 -7.23 3.21 -7.61 2.92 -7.92C2.64 -8.23 2.29 -8.46 1.9 -8.63C1.5 -8.79 1.06 -8.87 0.59 -8.87C-0.05 -8.87 -0.63 -8.73 -1.18 -8.45C-1.72 -8.17 -2.19 -7.78 -2.59 -7.3C-2.99 -6.81 -3.31 -6.24 -3.54 -5.59C-3.77 -4.94 -3.88 -4.25 -3.88 -3.51C-3.88 -2.93 -3.8 -2.42 -3.64 -1.97C-3.48 -1.53 -3.25 -1.15 -2.97 -0.84C-2.68 -0.53 -2.34 -0.29 -1.94 -0.13C-1.54 0.04 -1.11 0.12 -0.63 0.12Z M10.55 -7.34L10.93 -7.89C10.65 -8.19 10.3 -8.43 9.9 -8.6C9.5 -8.78 9.04 -8.87 8.52 -8.87C8.03 -8.87 7.58 -8.79 7.19 -8.63C6.79 -8.47 6.46 -8.26 6.18 -7.99C5.91 -7.73 5.7 -7.43 5.55 -7.08C5.4 -6.74 5.33 -6.39 5.33 -6.02C5.33 -5.6 5.42 -5.26 5.6 -5.01C5.78 -4.76 6 -4.55 6.27 -4.39C6.54 -4.24 6.83 -4.11 7.14 -4.01C7.45 -3.91 7.74 -3.8 8.01 -3.68C8.28 -3.57 8.51 -3.42 8.68 -3.25C8.86 -3.08 8.95 -2.85 8.95 -2.55C8.95 -2.33 8.91 -2.13 8.83 -1.94C8.74 -1.74 8.62 -1.58 8.46 -1.43C8.31 -1.29 8.11 -1.17 7.89 -1.09C7.66 -1 7.4 -0.96 7.12 -0.96C6.8 -0.96 6.54 -1 6.33 -1.08C6.12 -1.16 5.94 -1.25 5.8 -1.35C5.67 -1.45 5.55 -1.54 5.46 -1.62C5.37 -1.7 5.27 -1.74 5.18 -1.74C5.09 -1.74 5 -1.72 4.94 -1.68C4.88 -1.64 4.82 -1.58 4.78 -1.51L4.4 -0.92C4.67 -0.61 5.02 -0.36 5.45 -0.16C5.87 0.04 6.37 0.14 6.92 0.14C7.44 0.14 7.91 0.05 8.33 -0.11C8.74 -0.28 9.1 -0.5 9.4 -0.78C9.69 -1.06 9.92 -1.38 10.08 -1.75C10.23 -2.12 10.31 -2.5 10.31 -2.91C10.31 -3.32 10.22 -3.66 10.05 -3.92C9.87 -4.17 9.64 -4.39 9.37 -4.55C9.1 -4.72 8.81 -4.86 8.5 -4.97C8.19 -5.08 7.89 -5.19 7.62 -5.31C7.35 -5.43 7.13 -5.57 6.95 -5.73C6.77 -5.89 6.68 -6.1 6.68 -6.37C6.68 -6.56 6.73 -6.74 6.81 -6.91C6.89 -7.08 7.01 -7.23 7.17 -7.36C7.32 -7.48 7.51 -7.58 7.72 -7.65C7.93 -7.73 8.17 -7.76 8.43 -7.76C8.7 -7.76 8.94 -7.73 9.13 -7.66C9.33 -7.6 9.49 -7.52 9.63 -7.45C9.76 -7.37 9.88 -7.3 9.97 -7.24C10.07 -7.17 10.16 -7.14 10.24 -7.14C10.31 -7.14 10.36 -7.16 10.41 -7.19C10.45 -7.22 10.5 -7.27 10.55 -7.34Z M14.59 2.96L16.08 2.96L16.55 -0.86C16.79 -0.55 17.09 -0.3 17.45 -0.13C17.8 0.04 18.2 0.12 18.63 0.12C19.03 0.12 19.41 0.04 19.78 -0.11C20.15 -0.27 20.49 -0.48 20.8 -0.75C21.12 -1.03 21.4 -1.35 21.66 -1.72C21.91 -2.09 22.13 -2.49 22.31 -2.92C22.5 -3.35 22.63 -3.8 22.73 -4.27C22.83 -4.74 22.88 -5.21 22.88 -5.68C22.88 -6.72 22.67 -7.51 22.26 -8.05C21.84 -8.59 21.27 -8.87 20.52 -8.87C20.2 -8.87 19.89 -8.81 19.58 -8.69C19.27 -8.57 18.97 -8.4 18.68 -8.18C18.4 -7.97 18.13 -7.7 17.87 -7.39C17.61 -7.09 17.37 -6.74 17.15 -6.36L17.3 -8.23C17.3 -8.57 17.13 -8.74 16.78 -8.74L16.01 -8.74ZM19.95 -7.63C20.4 -7.63 20.74 -7.45 20.99 -7.1C21.24 -6.74 21.36 -6.22 21.36 -5.54C21.36 -5.19 21.33 -4.84 21.27 -4.49C21.2 -4.14 21.11 -3.79 20.99 -3.46C20.88 -3.13 20.73 -2.82 20.56 -2.53C20.39 -2.24 20.19 -1.99 19.97 -1.77C19.75 -1.56 19.51 -1.39 19.25 -1.26C18.98 -1.13 18.7 -1.07 18.4 -1.07C18.09 -1.07 17.77 -1.13 17.47 -1.26C17.16 -1.39 16.9 -1.62 16.68 -1.93L16.95 -4.16C17.12 -4.66 17.32 -5.12 17.55 -5.55C17.77 -5.97 18.02 -6.34 18.28 -6.65C18.55 -6.96 18.82 -7.2 19.11 -7.37C19.39 -7.55 19.67 -7.63 19.95 -7.63Z M30.32 0L31.36 -8.45C31.02 -8.6 30.67 -8.71 30.32 -8.77C29.96 -8.83 29.6 -8.86 29.23 -8.86C28.71 -8.86 28.21 -8.78 27.74 -8.64C27.27 -8.49 26.83 -8.28 26.42 -8.02C26.01 -7.75 25.64 -7.43 25.3 -7.07C24.97 -6.7 24.68 -6.3 24.44 -5.86C24.21 -5.43 24.02 -4.96 23.89 -4.47C23.76 -3.98 23.7 -3.48 23.7 -2.96C23.7 -2.46 23.75 -2.03 23.86 -1.64C23.97 -1.26 24.12 -0.94 24.32 -0.68C24.52 -0.42 24.76 -0.22 25.04 -0.08C25.33 0.05 25.64 0.12 25.98 0.12C26.3 0.12 26.6 0.06 26.9 -0.05C27.19 -0.17 27.47 -0.33 27.74 -0.54C28.01 -0.75 28.26 -1 28.5 -1.3C28.74 -1.6 28.96 -1.93 29.17 -2.3L29.01 -0.53C29.01 -0.39 29.05 -0.26 29.12 -0.16C29.19 -0.05 29.33 0 29.53 0ZM26.56 -1.16C25.68 -1.16 25.23 -1.85 25.23 -3.23C25.23 -3.63 25.28 -4.02 25.37 -4.39C25.46 -4.77 25.59 -5.13 25.75 -5.46C25.92 -5.79 26.12 -6.1 26.35 -6.38C26.58 -6.66 26.83 -6.9 27.11 -7.1C27.39 -7.3 27.7 -7.46 28.02 -7.57C28.34 -7.68 28.67 -7.74 29.02 -7.74C29.14 -7.74 29.26 -7.73 29.39 -7.72C29.51 -7.71 29.63 -7.7 29.76 -7.67L29.39 -4.67C29.23 -4.15 29.04 -3.68 28.83 -3.26C28.62 -2.83 28.4 -2.46 28.16 -2.15C27.92 -1.84 27.66 -1.59 27.39 -1.42C27.12 -1.24 26.84 -1.16 26.56 -1.16Z M32.61 0L34.11 0L34.59 -4.05C34.88 -5.16 35.25 -5.98 35.69 -6.52C36.12 -7.07 36.62 -7.34 37.18 -7.34C37.43 -7.34 37.69 -7.28 37.96 -7.17L38.24 -8.65C38 -8.75 37.75 -8.8 37.51 -8.8C37 -8.8 36.51 -8.59 36.05 -8.15C35.59 -7.71 35.17 -7.09 34.8 -6.29L34.92 -7.87C34.92 -7.88 34.92 -7.9 34.92 -7.93C34.92 -7.97 34.93 -8.01 34.93 -8.05C34.93 -8.1 34.94 -8.15 34.94 -8.19C34.94 -8.23 34.94 -8.26 34.94 -8.29C34.94 -8.44 34.9 -8.56 34.81 -8.63C34.71 -8.71 34.59 -8.74 34.43 -8.74L33.66 -8.74Z M44.74 0L45.78 -8.45C45.44 -8.6 45.09 -8.71 44.74 -8.77C44.38 -8.83 44.02 -8.86 43.64 -8.86C43.13 -8.86 42.63 -8.78 42.16 -8.64C41.69 -8.49 41.25 -8.28 40.84 -8.02C40.43 -7.75 40.05 -7.43 39.72 -7.07C39.39 -6.7 39.1 -6.3 38.86 -5.86C38.62 -5.43 38.44 -4.96 38.31 -4.47C38.18 -3.98 38.12 -3.48 38.12 -2.96C38.12 -2.46 38.17 -2.03 38.28 -1.64C38.39 -1.26 38.54 -0.94 38.74 -0.68C38.94 -0.42 39.18 -0.22 39.46 -0.08C39.74 0.05 40.06 0.12 40.4 0.12C40.72 0.12 41.02 0.06 41.32 -0.05C41.61 -0.17 41.89 -0.33 42.16 -0.54C42.42 -0.75 42.68 -1 42.92 -1.3C43.15 -1.6 43.38 -1.93 43.58 -2.3L43.43 -0.53C43.43 -0.39 43.47 -0.26 43.54 -0.16C43.61 -0.05 43.75 0 43.95 0ZM40.98 -1.16C40.09 -1.16 39.65 -1.85 39.65 -3.23C39.65 -3.63 39.7 -4.02 39.79 -4.39C39.88 -4.77 40.01 -5.13 40.17 -5.46C40.34 -5.79 40.53 -6.1 40.76 -6.38C40.99 -6.66 41.25 -6.9 41.53 -7.1C41.81 -7.3 42.12 -7.46 42.44 -7.57C42.76 -7.68 43.09 -7.74 43.44 -7.74C43.56 -7.74 43.68 -7.73 43.8 -7.72C43.93 -7.71 44.05 -7.7 44.18 -7.67L43.81 -4.67C43.65 -4.15 43.46 -3.68 43.25 -3.26C43.04 -2.83 42.82 -2.46 42.58 -2.15C42.33 -1.84 42.08 -1.59 41.81 -1.42C41.54 -1.24 41.26 -1.16 40.98 -1.16Z M50.81 -12.36L53.92 0L55.38 0L61.53 -12.36L60.24 -12.36C60.1 -12.36 59.98 -12.32 59.87 -12.23C59.76 -12.15 59.69 -12.06 59.64 -11.97L55.42 -3.14C55.33 -2.95 55.24 -2.75 55.15 -2.53C55.06 -2.31 54.98 -2.08 54.9 -1.84C54.87 -2.08 54.83 -2.31 54.79 -2.53C54.75 -2.75 54.7 -2.96 54.66 -3.14L52.6 -11.97C52.57 -12.08 52.51 -12.17 52.43 -12.25C52.35 -12.32 52.24 -12.36 52.1 -12.36Z M63.45 -1.08C62.85 -1.08 62.39 -1.28 62.08 -1.69C61.76 -2.11 61.61 -2.71 61.61 -3.52C61.61 -4.06 61.67 -4.59 61.81 -5.09C61.94 -5.59 62.13 -6.03 62.37 -6.41C62.61 -6.79 62.9 -7.1 63.24 -7.33C63.58 -7.55 63.97 -7.67 64.39 -7.67C64.99 -7.67 65.45 -7.46 65.76 -7.05C66.08 -6.65 66.24 -6.04 66.24 -5.23C66.24 -4.69 66.17 -4.17 66.04 -3.67C65.91 -3.16 65.72 -2.72 65.48 -2.34C65.24 -1.96 64.95 -1.65 64.6 -1.42C64.26 -1.19 63.87 -1.08 63.45 -1.08ZM63.32 0.12C63.94 0.12 64.53 -0.02 65.07 -0.31C65.62 -0.59 66.09 -0.98 66.49 -1.47C66.89 -1.95 67.21 -2.52 67.44 -3.17C67.67 -3.82 67.78 -4.51 67.78 -5.24C67.78 -5.81 67.7 -6.32 67.54 -6.77C67.38 -7.23 67.16 -7.61 66.87 -7.92C66.58 -8.23 66.24 -8.46 65.84 -8.63C65.45 -8.79 65.01 -8.87 64.53 -8.87C63.9 -8.87 63.31 -8.73 62.77 -8.45C62.22 -8.17 61.75 -7.78 61.35 -7.3C60.95 -6.81 60.64 -6.24 60.41 -5.59C60.18 -4.94 60.06 -4.25 60.06 -3.51C60.06 -2.93 60.14 -2.42 60.31 -1.97C60.47 -1.53 60.69 -1.15 60.98 -0.84C61.27 -0.53 61.61 -0.29 62 -0.13C62.4 0.04 62.84 0.12 63.32 0.12Z M74.49 -7.34L74.88 -7.89C74.59 -8.19 74.25 -8.43 73.85 -8.6C73.45 -8.78 72.99 -8.87 72.47 -8.87C71.97 -8.87 71.53 -8.79 71.13 -8.63C70.74 -8.47 70.4 -8.26 70.13 -7.99C69.85 -7.73 69.64 -7.43 69.49 -7.08C69.35 -6.74 69.27 -6.39 69.27 -6.02C69.27 -5.6 69.36 -5.26 69.54 -5.01C69.72 -4.76 69.94 -4.55 70.21 -4.39C70.48 -4.24 70.78 -4.11 71.09 -4.01C71.4 -3.91 71.69 -3.8 71.96 -3.68C72.23 -3.57 72.45 -3.42 72.63 -3.25C72.81 -3.08 72.9 -2.85 72.9 -2.55C72.9 -2.33 72.85 -2.13 72.77 -1.94C72.69 -1.74 72.57 -1.58 72.41 -1.43C72.25 -1.29 72.06 -1.17 71.83 -1.09C71.6 -1 71.35 -0.96 71.07 -0.96C70.75 -0.96 70.48 -1 70.27 -1.08C70.06 -1.16 69.89 -1.25 69.75 -1.35C69.61 -1.45 69.5 -1.54 69.4 -1.62C69.31 -1.7 69.22 -1.74 69.13 -1.74C69.03 -1.74 68.95 -1.72 68.89 -1.68C68.82 -1.64 68.77 -1.58 68.72 -1.51L68.34 -0.92C68.61 -0.61 68.96 -0.36 69.39 -0.16C69.82 0.04 70.31 0.14 70.87 0.14C71.39 0.14 71.85 0.05 72.27 -0.11C72.69 -0.28 73.04 -0.5 73.34 -0.78C73.64 -1.06 73.86 -1.38 74.02 -1.75C74.18 -2.12 74.26 -2.5 74.26 -2.91C74.26 -3.32 74.17 -3.66 73.99 -3.92C73.81 -4.17 73.59 -4.39 73.32 -4.55C73.05 -4.72 72.76 -4.86 72.44 -4.97C72.13 -5.08 71.84 -5.19 71.57 -5.31C71.3 -5.43 71.07 -5.57 70.9 -5.73C70.72 -5.89 70.63 -6.1 70.63 -6.37C70.63 -6.56 70.67 -6.74 70.75 -6.91C70.84 -7.08 70.96 -7.23 71.11 -7.36C71.27 -7.48 71.45 -7.58 71.66 -7.65C71.88 -7.73 72.11 -7.76 72.37 -7.76C72.65 -7.76 72.88 -7.73 73.08 -7.66C73.27 -7.6 73.44 -7.52 73.57 -7.45C73.71 -7.37 73.82 -7.3 73.92 -7.24C74.01 -7.17 74.1 -7.14 74.18 -7.14C74.25 -7.14 74.31 -7.16 74.35 -7.19C74.4 -7.22 74.45 -7.27 74.49 -7.34Z"></path></g><rect id="SvgjsRect9194" width="116.8085651850441" height="1.1498320677745202" fill="#29292e" transform="translate(277.2963760446727, 144.43492948407152) scale(1)" light-content="false"></rect></g></g></svg>