<svg xmlns="http://www.w3.org/2000/svg" id="SvgjsSvg27690" width="4096" height="1990.0870401008979" version="1.1" xmlns:xlink="http://www.w3.org/1999/xlink" xmlns:svgjs="http://svgjs.com/svgjs"><defs id="SvgjsDefs27691"></defs><g id="SvgjsG27692" transform="translate(328, 328) scale(34.4)" opacity="1"><defs id="SvgjsDefs8032"></defs><g id="SvgjsG8033" transform="scale(0.2164502164502165)" opacity="1"><g id="SvgjsG8034" class="KGehIYjDh" transform="translate(180.363635426401, -1.0513431319737583) scale(0.9974792523470173)" light-content="false" non-strokable="false" fill="#ffffff"><path d="M70.934 40.191c7.71-1.434 12.781-3.074 16.406-8.05 1.91-2.622 2.309-5.47 1.137-8.024-1.86-4.047-7.23-6.781-14.816-7.586-1.004-9.434-5.094-15.473-10.57-15.473-1.707 0-3.399.601-5.04 1.797-4.976 3.62-6.613 8.691-8.05 16.406-1.434-7.719-3.074-12.79-8.051-16.41-1.637-1.192-3.336-1.797-5.04-1.797-5.472 0-9.562 6.039-10.565 15.477-7.582.8-12.953 3.539-14.816 7.582-1.176 2.55-.774 5.406 1.133 8.027 3.62 4.977 8.695 6.613 16.406 8.051-7.715 1.434-12.785 3.074-16.406 8.05-1.906 2.622-2.309 5.47-1.133 8.024 1.86 4.047 7.23 6.781 14.816 7.582 1 9.438 5.086 15.473 10.566 15.473 1.703 0 3.398-.601 5.039-1.797 3.656-2.656 5.504-6.113 6.8-10.812l-.003 32.23h2.5l.004-32.223c1.297 4.7 3.14 8.153 6.8 10.81 1.637 1.19 3.333 1.796 5.04 1.796h.004c5.468 0 9.558-6.039 10.566-15.477 7.582-.8 12.953-3.539 14.816-7.578 1.175-2.55.773-5.406-1.133-8.023-3.63-4.98-8.7-6.618-16.41-8.055zM86.2 55.226c-1.531 3.332-6.688 5.664-13.789 6.23a1.254 1.254 0 0 0-1.148 1.145c-.684 8.512-3.97 14.227-8.176 14.227-1.168 0-2.367-.445-3.574-1.316-5.239-3.809-6.22-9.641-7.996-20.227l-.29-1.723a1.25 1.25 0 0 0-1.234-1.043c-.61 0-1.129.441-1.234 1.043l-.286 1.695c-1.78 10.602-2.761 16.441-8.003 20.258-1.2.875-2.403 1.317-3.57 1.317-4.212 0-7.497-5.715-8.177-14.223a1.25 1.25 0 0 0-1.144-1.145c-7.102-.57-12.258-2.898-13.793-6.23-1-2.176-.074-4.2.887-5.512 3.808-5.242 9.64-6.219 20.238-8l1.71-.29a1.25 1.25 0 0 0 1.044-1.234c0-.609-.442-1.128-1.043-1.234l-1.684-.281c-10.609-1.781-16.449-2.762-20.266-8.004-.953-1.313-1.883-3.336-.883-5.516 1.531-3.332 6.692-5.664 13.793-6.23a1.257 1.257 0 0 0 1.149-1.145c.675-8.508 3.96-14.227 8.171-14.227 1.168 0 2.368.446 3.57 1.317 5.24 3.808 6.22 9.64 7.997 20.227l.293 1.722a1.25 1.25 0 0 0 2.465 0l.281-1.699C53.289 14.526 54.27 8.69 59.512 4.874c1.2-.87 2.402-1.316 3.57-1.316 4.211 0 7.496 5.715 8.176 14.223.05.61.535 1.094 1.148 1.144 7.102.575 12.258 2.899 13.79 6.235 1 2.175.074 4.199-.887 5.511-3.817 5.246-9.657 6.223-20.266 8.004l-1.688.282a1.247 1.247 0 0 0-1.039 1.234c0 .61.442 1.129 1.04 1.234l1.702.286c10.598 1.78 16.438 2.761 20.254 8.003.961 1.313 1.887 3.336.887 5.512z"></path><path d="M53.676 37.766c.32 0 .64-.121.887-.363l8.238-8.239a1.247 1.247 0 0 0 0-1.765 1.247 1.247 0 0 0-1.766 0l-8.238 8.238a1.247 1.247 0 0 0 .879 2.129zM38.973 27.391a1.247 1.247 0 0 0-1.766 0 1.247 1.247 0 0 0 0 1.766l8.239 8.238c.246.246.566.363.886.363a1.247 1.247 0 0 0 .887-2.129zm6.468 15.593l-8.238 8.238a1.247 1.247 0 0 0 .886 2.13c.317 0 .641-.122.887-.364l8.238-8.238a1.247 1.247 0 0 0 0-1.766 1.257 1.257 0 0 0-1.773 0zm9.118 0a1.247 1.247 0 0 0-1.766 0 1.247 1.247 0 0 0 0 1.766l8.239 8.238c.246.246.566.363.886.363a1.247 1.247 0 0 0 .887-2.129z"></path></g><g id="SvgjsG8035" class="text" transform="translate(230.27, 145.87900076628603) scale(1)" light-content="false" fill="#fffcfc"><path d="M-221.29 0.04C-220.11 0.12 -219.08 0.16 -218.22 0.16C-215.8 0.16 -213.56 -0.38 -211.53 -1.48C-209.49 -2.57 -207.88 -4.12 -206.68 -6.13C-205.48 -8.13 -204.88 -10.45 -204.88 -13.06C-204.88 -15.38 -205.46 -17.47 -206.62 -19.33C-207.78 -21.19 -209.41 -22.66 -211.53 -23.74C-213.65 -24.82 -216.07 -25.35 -218.79 -25.35C-219.27 -25.35 -220.22 -25.33 -221.62 -25.27C-222.78 -25.19 -223.91 -25.15 -225.02 -25.15C-225.74 -25.15 -226.73 -25.18 -227.97 -25.23L-230.11 -25.27C-230.19 -25.27 -230.23 -25.19 -230.23 -25.03C-230.23 -24.87 -230.19 -24.79 -230.11 -24.79C-229.27 -24.79 -228.66 -24.71 -228.27 -24.57C-227.88 -24.42 -227.61 -24.15 -227.46 -23.78C-227.31 -23.4 -227.24 -22.81 -227.24 -22L-227.24 -3.28C-227.24 -2.47 -227.31 -1.87 -227.46 -1.48C-227.61 -1.09 -227.89 -0.82 -228.29 -0.69C-228.7 -0.55 -229.33 -0.49 -230.19 -0.49C-230.25 -0.49 -230.27 -0.4 -230.27 -0.24C-230.27 -0.08 -230.25 0 -230.19 0C-229.27 0 -228.55 -0.01 -228.01 -0.04L-225.02 -0.08C-224.23 -0.08 -223.53 -0.07 -222.89 -0.04C-222.26 -0.01 -221.73 0.01 -221.29 0.04ZM-214.06 -2.08C-215.38 -1.21 -216.9 -0.77 -218.63 -0.77C-220.24 -0.77 -221.34 -0.99 -221.9 -1.44C-222.47 -1.88 -222.75 -2.64 -222.75 -3.72L-222.75 -21.92C-222.75 -22.97 -222.44 -23.66 -221.82 -23.98C-221.2 -24.3 -220.05 -24.46 -218.38 -24.46C-216.69 -24.46 -215.19 -23.93 -213.89 -22.85C-212.6 -21.77 -211.6 -20.29 -210.9 -18.42C-210.2 -16.55 -209.85 -14.46 -209.85 -12.17C-209.85 -9.77 -210.22 -7.71 -210.96 -5.98C-211.7 -4.26 -212.74 -2.96 -214.06 -2.08Z M-180.8 -23.53C-180.14 -22.7 -179.81 -21.55 -179.81 -20.1L-179.81 -8.82C-179.81 -6.28 -180.44 -4.33 -181.71 -2.97C-182.97 -1.61 -184.73 -0.93 -186.96 -0.93C-189.28 -0.93 -191.07 -1.7 -192.34 -3.24C-193.61 -4.77 -194.24 -7.14 -194.24 -10.35L-194.24 -21.92C-194.24 -22.73 -194.17 -23.33 -194.02 -23.72C-193.87 -24.11 -193.6 -24.38 -193.21 -24.55C-192.82 -24.71 -192.21 -24.79 -191.37 -24.79C-191.29 -24.79 -191.25 -24.87 -191.25 -25.03C-191.25 -25.19 -191.29 -25.27 -191.37 -25.27L-193.43 -25.23C-194.67 -25.18 -195.7 -25.15 -196.51 -25.15C-197.23 -25.15 -198.22 -25.18 -199.46 -25.23L-201.6 -25.27C-201.68 -25.27 -201.72 -25.19 -201.72 -25.03C-201.72 -24.87 -201.68 -24.79 -201.6 -24.79C-200.77 -24.79 -200.15 -24.71 -199.76 -24.57C-199.37 -24.42 -199.1 -24.15 -198.95 -23.78C-198.8 -23.4 -198.73 -22.81 -198.73 -22L-198.73 -8.94C-198.73 -7 -198.29 -5.3 -197.42 -3.86C-196.54 -2.42 -195.33 -1.32 -193.8 -0.57C-192.26 0.19 -190.49 0.57 -188.5 0.57C-186.51 0.57 -184.75 0.18 -183.22 -0.59C-181.7 -1.35 -180.52 -2.45 -179.68 -3.88C-178.85 -5.31 -178.43 -6.97 -178.43 -8.86L-178.43 -20.1C-178.43 -21.55 -178.13 -22.7 -177.54 -23.53C-176.95 -24.37 -176.13 -24.79 -175.07 -24.79C-175.02 -24.79 -174.99 -24.87 -174.99 -25.03C-174.99 -25.19 -175.02 -25.27 -175.07 -25.27L-176.93 -25.23C-177.91 -25.18 -178.65 -25.15 -179.16 -25.15C-179.78 -25.15 -180.6 -25.18 -181.63 -25.23L-183.57 -25.27C-183.62 -25.27 -183.65 -25.19 -183.65 -25.03C-183.65 -24.87 -183.62 -24.79 -183.57 -24.79C-182.38 -24.79 -181.46 -24.37 -180.8 -23.53Z M-154.25 -6.51C-154.36 -6.51 -154.41 -6.48 -154.41 -6.43C-155 -4.62 -155.93 -3.29 -157.2 -2.43C-158.47 -1.56 -160.15 -1.13 -162.26 -1.13L-163.59 -1.13C-164.24 -1.13 -164.71 -1.32 -165.01 -1.7C-165.3 -2.08 -165.45 -2.66 -165.45 -3.44L-165.45 -12.58L-162.13 -12.58C-160.54 -12.58 -159.32 -12.26 -158.48 -11.63C-157.63 -10.99 -157.2 -10.12 -157.2 -9.02C-157.2 -8.96 -157.12 -8.94 -156.96 -8.94C-156.8 -8.94 -156.72 -8.96 -156.72 -9.02C-156.72 -9.56 -156.74 -10.28 -156.8 -11.2L-156.84 -13.14L-156.8 -16.78C-156.8 -16.86 -156.87 -16.9 -157.02 -16.9C-157.17 -16.9 -157.24 -16.86 -157.24 -16.78C-157.24 -15.81 -157.66 -15.06 -158.5 -14.52C-159.33 -13.98 -160.53 -13.71 -162.09 -13.71L-165.45 -13.71L-165.45 -21.96C-165.45 -22.69 -165.26 -23.22 -164.88 -23.58C-164.51 -23.93 -163.91 -24.1 -163.11 -24.1L-161.89 -24.1C-160.22 -24.1 -158.87 -23.72 -157.85 -22.97C-156.82 -22.21 -156.1 -21.05 -155.66 -19.49C-155.64 -19.41 -155.55 -19.38 -155.4 -19.41C-155.25 -19.44 -155.18 -19.48 -155.18 -19.53L-155.26 -24.91C-155.26 -25.15 -155.4 -25.27 -155.66 -25.27L-172.81 -25.27C-172.89 -25.27 -172.93 -25.19 -172.93 -25.03C-172.93 -24.87 -172.89 -24.79 -172.81 -24.79C-171.97 -24.79 -171.35 -24.71 -170.95 -24.57C-170.55 -24.42 -170.28 -24.15 -170.14 -23.78C-170.01 -23.4 -169.94 -22.81 -169.94 -22L-169.94 -3.28C-169.94 -2.47 -170.01 -1.87 -170.14 -1.48C-170.28 -1.09 -170.54 -0.82 -170.93 -0.69C-171.32 -0.55 -171.95 -0.49 -172.81 -0.49C-172.89 -0.49 -172.93 -0.4 -172.93 -0.24C-172.93 -0.08 -172.89 0 -172.81 0L-154.94 0C-154.69 0 -154.53 -0.05 -154.45 -0.14C-154.37 -0.24 -154.33 -0.39 -154.33 -0.61C-154.33 -2.33 -154.2 -4.25 -153.93 -6.35C-153.93 -6.38 -153.96 -6.41 -154.03 -6.45C-154.09 -6.49 -154.17 -6.51 -154.25 -6.51Z M-122.83 -25.03C-122.83 -25.19 -122.86 -25.27 -122.91 -25.27L-124.73 -25.23C-125.7 -25.18 -126.46 -25.15 -126.99 -25.15C-127.59 -25.15 -128.32 -25.18 -129.18 -25.23L-130.92 -25.27C-130.97 -25.27 -131 -25.19 -131 -25.03C-131 -24.87 -130.97 -24.79 -130.92 -24.79C-129.87 -24.79 -129.04 -24.37 -128.45 -23.53C-127.86 -22.7 -127.56 -21.55 -127.56 -20.1L-127.56 -7.04L-141.55 -23.17C-141.74 -23.39 -142.06 -23.8 -142.52 -24.42C-142.79 -24.77 -142.98 -25 -143.09 -25.11C-143.2 -25.22 -143.36 -25.27 -143.57 -25.27C-144.11 -25.27 -144.57 -25.26 -144.95 -25.23L-148.02 -25.19C-148.7 -25.19 -149.21 -25.21 -149.56 -25.23L-151.26 -25.27C-151.31 -25.27 -151.34 -25.19 -151.34 -25.03C-151.34 -24.87 -151.31 -24.79 -151.26 -24.79C-150.58 -24.79 -149.93 -24.61 -149.3 -24.24C-148.66 -23.88 -147.9 -23.21 -147.01 -22.24L-147.01 -5.14C-147.01 -3.71 -147.35 -2.57 -148.04 -1.74C-148.73 -0.9 -149.67 -0.49 -150.85 -0.49C-150.93 -0.49 -150.97 -0.4 -150.97 -0.24C-150.97 -0.08 -150.93 0 -150.85 0C-149.99 0 -149.33 -0.01 -148.87 -0.04L-146.36 -0.08L-144.18 -0.04C-143.78 -0.01 -143.2 0 -142.44 0C-142.39 0 -142.36 -0.08 -142.36 -0.24C-142.36 -0.4 -142.39 -0.49 -142.44 -0.49C-143.49 -0.49 -144.32 -0.9 -144.91 -1.74C-145.5 -2.57 -145.8 -3.71 -145.8 -5.14L-145.8 -20.87L-126.83 0.73C-126.78 0.78 -126.69 0.8 -126.57 0.77C-126.45 0.74 -126.39 0.69 -126.39 0.61L-126.39 -20.1C-126.39 -21.53 -126.08 -22.67 -125.46 -23.51C-124.84 -24.36 -123.99 -24.79 -122.91 -24.79C-122.86 -24.79 -122.83 -24.87 -122.83 -25.03Z M-112.32 0.04C-111.13 0.12 -110.1 0.16 -109.24 0.16C-106.82 0.16 -104.59 -0.38 -102.55 -1.48C-100.51 -2.57 -98.9 -4.12 -97.7 -6.13C-96.5 -8.13 -95.9 -10.45 -95.9 -13.06C-95.9 -15.38 -96.48 -17.47 -97.64 -19.33C-98.8 -21.19 -100.43 -22.66 -102.55 -23.74C-104.67 -24.82 -107.09 -25.35 -109.81 -25.35C-110.29 -25.35 -111.24 -25.33 -112.64 -25.27C-113.8 -25.19 -114.93 -25.15 -116.04 -25.15C-116.76 -25.15 -117.75 -25.18 -118.99 -25.23L-121.13 -25.27C-121.21 -25.27 -121.25 -25.19 -121.25 -25.03C-121.25 -24.87 -121.21 -24.79 -121.13 -24.79C-120.3 -24.79 -119.68 -24.71 -119.29 -24.57C-118.9 -24.42 -118.63 -24.15 -118.48 -23.78C-118.33 -23.4 -118.26 -22.81 -118.26 -22L-118.26 -3.28C-118.26 -2.47 -118.33 -1.87 -118.48 -1.48C-118.63 -1.09 -118.91 -0.82 -119.31 -0.69C-119.72 -0.55 -120.35 -0.49 -121.21 -0.49C-121.27 -0.49 -121.29 -0.4 -121.29 -0.24C-121.29 -0.08 -121.27 0 -121.21 0C-120.3 0 -119.57 -0.01 -119.03 -0.04L-116.04 -0.08C-115.25 -0.08 -114.55 -0.07 -113.91 -0.04C-113.28 -0.01 -112.75 0.01 -112.32 0.04ZM-105.08 -2.08C-106.4 -1.21 -107.92 -0.77 -109.65 -0.77C-111.26 -0.77 -112.36 -0.99 -112.92 -1.44C-113.49 -1.88 -113.77 -2.64 -113.77 -3.72L-113.77 -21.92C-113.77 -22.97 -113.46 -23.66 -112.84 -23.98C-112.22 -24.3 -111.08 -24.46 -109.4 -24.46C-107.71 -24.46 -106.21 -23.93 -104.92 -22.85C-103.62 -21.77 -102.62 -20.29 -101.92 -18.42C-101.22 -16.55 -100.87 -14.46 -100.87 -12.17C-100.87 -9.77 -101.24 -7.71 -101.98 -5.98C-102.73 -4.26 -103.76 -2.96 -105.08 -2.08Z M-73.7 -6.51C-73.81 -6.51 -73.86 -6.48 -73.86 -6.43C-74.45 -4.62 -75.38 -3.29 -76.65 -2.43C-77.92 -1.56 -79.6 -1.13 -81.7 -1.13L-83.04 -1.13C-83.69 -1.13 -84.16 -1.32 -84.45 -1.7C-84.75 -2.08 -84.9 -2.66 -84.9 -3.44L-84.9 -12.58L-81.58 -12.58C-79.99 -12.58 -78.77 -12.26 -77.92 -11.63C-77.07 -10.99 -76.65 -10.12 -76.65 -9.02C-76.65 -8.96 -76.57 -8.94 -76.41 -8.94C-76.25 -8.94 -76.16 -8.96 -76.16 -9.02C-76.16 -9.56 -76.19 -10.28 -76.25 -11.2L-76.29 -13.14L-76.25 -16.78C-76.25 -16.86 -76.32 -16.9 -76.47 -16.9C-76.62 -16.9 -76.69 -16.86 -76.69 -16.78C-76.69 -15.81 -77.11 -15.06 -77.94 -14.52C-78.78 -13.98 -79.98 -13.71 -81.54 -13.71L-84.9 -13.71L-84.9 -21.96C-84.9 -22.69 -84.71 -23.22 -84.33 -23.58C-83.96 -23.93 -83.36 -24.1 -82.55 -24.1L-81.34 -24.1C-79.67 -24.1 -78.32 -23.72 -77.3 -22.97C-76.27 -22.21 -75.54 -21.05 -75.11 -19.49C-75.09 -19.41 -75 -19.38 -74.85 -19.41C-74.7 -19.44 -74.63 -19.48 -74.63 -19.53L-74.71 -24.91C-74.71 -25.15 -74.84 -25.27 -75.11 -25.27L-92.26 -25.27C-92.34 -25.27 -92.38 -25.19 -92.38 -25.03C-92.38 -24.87 -92.34 -24.79 -92.26 -24.79C-91.42 -24.79 -90.8 -24.71 -90.4 -24.57C-89.99 -24.42 -89.72 -24.15 -89.59 -23.78C-89.45 -23.4 -89.39 -22.81 -89.39 -22L-89.39 -3.28C-89.39 -2.47 -89.45 -1.87 -89.59 -1.48C-89.72 -1.09 -89.99 -0.82 -90.38 -0.69C-90.77 -0.55 -91.4 -0.49 -92.26 -0.49C-92.34 -0.49 -92.38 -0.4 -92.38 -0.24C-92.38 -0.08 -92.34 0 -92.26 0L-74.39 0C-74.14 0 -73.98 -0.05 -73.9 -0.14C-73.82 -0.24 -73.78 -0.39 -73.78 -0.61C-73.78 -2.33 -73.64 -4.25 -73.37 -6.35C-73.37 -6.38 -73.41 -6.41 -73.48 -6.45C-73.54 -6.49 -73.62 -6.51 -73.7 -6.51Z M-63.81 -18.6C-64.31 -19.36 -64.56 -20.22 -64.56 -21.19C-64.56 -22.38 -64.21 -23.28 -63.53 -23.9C-62.84 -24.52 -61.96 -24.83 -60.88 -24.83C-59.26 -24.83 -58 -24.24 -57.1 -23.05C-56.19 -21.86 -55.41 -20.42 -54.73 -18.72L-54.41 -17.95C-54.38 -17.87 -54.3 -17.85 -54.17 -17.89C-54.03 -17.93 -53.96 -17.99 -53.96 -18.08L-53.96 -24.02C-53.96 -24.21 -54 -24.36 -54.09 -24.48C-54.17 -24.61 -54.33 -24.72 -54.57 -24.83C-55.16 -25.07 -55.95 -25.28 -56.92 -25.46C-57.89 -25.63 -58.84 -25.72 -59.79 -25.72C-61.22 -25.72 -62.58 -25.48 -63.87 -25.01C-65.17 -24.54 -66.22 -23.81 -67.05 -22.83C-67.87 -21.84 -68.28 -20.64 -68.28 -19.21C-68.28 -18.08 -68.02 -17.09 -67.51 -16.26C-67 -15.42 -66.39 -14.71 -65.67 -14.11C-64.96 -13.52 -63.95 -12.81 -62.66 -11.97C-61.34 -11.11 -60.3 -10.37 -59.54 -9.75C-58.79 -9.13 -58.15 -8.37 -57.62 -7.48C-57.1 -6.59 -56.84 -5.55 -56.84 -4.37C-56.84 -2.97 -57.19 -1.97 -57.89 -1.4C-58.59 -0.82 -59.48 -0.53 -60.56 -0.53C-61.74 -0.53 -62.8 -0.92 -63.73 -1.7C-64.66 -2.48 -65.43 -3.38 -66.03 -4.41C-66.64 -5.43 -67.35 -6.77 -68.16 -8.41C-68.18 -8.52 -68.27 -8.57 -68.4 -8.55C-68.54 -8.54 -68.6 -8.48 -68.6 -8.37L-68.6 -8.33L-68.48 -1.9C-68.48 -1.68 -68.45 -1.53 -68.38 -1.44C-68.31 -1.34 -68.21 -1.24 -68.08 -1.13C-67.62 -0.73 -66.73 -0.36 -65.41 -0.02C-64.09 0.32 -62.82 0.49 -61.61 0.49C-59.96 0.49 -58.47 0.18 -57.14 -0.42C-55.8 -1.03 -54.76 -1.88 -54 -2.97C-53.25 -4.06 -52.87 -5.31 -52.87 -6.71C-52.87 -7.93 -53.16 -9 -53.72 -9.93C-54.29 -10.86 -54.97 -11.65 -55.78 -12.29C-56.59 -12.94 -57.67 -13.69 -59.02 -14.56C-60.26 -15.37 -61.24 -16.05 -61.97 -16.62C-62.7 -17.19 -63.31 -17.85 -63.81 -18.6Z M-31.2 0.04C-30.01 0.12 -28.99 0.16 -28.12 0.16C-25.7 0.16 -23.47 -0.38 -21.43 -1.48C-19.4 -2.57 -17.78 -4.12 -16.58 -6.13C-15.38 -8.13 -14.78 -10.45 -14.78 -13.06C-14.78 -15.38 -15.36 -17.47 -16.52 -19.33C-17.68 -21.19 -19.32 -22.66 -21.43 -23.74C-23.55 -24.82 -25.97 -25.35 -28.69 -25.35C-29.18 -25.35 -30.12 -25.33 -31.52 -25.27C-32.68 -25.19 -33.81 -25.15 -34.92 -25.15C-35.65 -25.15 -36.63 -25.18 -37.87 -25.23L-40.01 -25.27C-40.09 -25.27 -40.13 -25.19 -40.13 -25.03C-40.13 -24.87 -40.09 -24.79 -40.01 -24.79C-39.18 -24.79 -38.56 -24.71 -38.17 -24.57C-37.78 -24.42 -37.51 -24.15 -37.36 -23.78C-37.22 -23.4 -37.14 -22.81 -37.14 -22L-37.14 -3.28C-37.14 -2.47 -37.22 -1.87 -37.36 -1.48C-37.51 -1.09 -37.79 -0.82 -38.19 -0.69C-38.6 -0.55 -39.23 -0.49 -40.09 -0.49C-40.15 -0.49 -40.17 -0.4 -40.17 -0.24C-40.17 -0.08 -40.15 0 -40.09 0C-39.18 0 -38.45 -0.01 -37.91 -0.04L-34.92 -0.08C-34.14 -0.08 -33.43 -0.07 -32.79 -0.04C-32.16 -0.01 -31.63 0.01 -31.2 0.04ZM-23.96 -2.08C-25.28 -1.21 -26.8 -0.77 -28.53 -0.77C-30.15 -0.77 -31.24 -0.99 -31.8 -1.44C-32.37 -1.88 -32.65 -2.64 -32.65 -3.72L-32.65 -21.92C-32.65 -22.97 -32.34 -23.66 -31.72 -23.98C-31.1 -24.3 -29.96 -24.46 -28.29 -24.46C-26.59 -24.46 -25.09 -23.93 -23.8 -22.85C-22.5 -21.77 -21.51 -20.29 -20.81 -18.42C-20.1 -16.55 -19.75 -14.46 -19.75 -12.17C-19.75 -9.77 -20.12 -7.71 -20.87 -5.98C-21.61 -4.26 -22.64 -2.96 -23.96 -2.08Z M7.42 -6.51C7.31 -6.51 7.26 -6.48 7.26 -6.43C6.67 -4.62 5.74 -3.29 4.47 -2.43C3.2 -1.56 1.52 -1.13 -0.59 -1.13L-1.92 -1.13C-2.57 -1.13 -3.04 -1.32 -3.34 -1.7C-3.63 -2.08 -3.78 -2.66 -3.78 -3.44L-3.78 -12.58L-0.47 -12.58C1.13 -12.58 2.35 -12.26 3.19 -11.63C4.04 -10.99 4.47 -10.12 4.47 -9.02C4.47 -8.96 4.55 -8.94 4.71 -8.94C4.87 -8.94 4.95 -8.96 4.95 -9.02C4.95 -9.56 4.93 -10.28 4.87 -11.2L4.83 -13.14L4.87 -16.78C4.87 -16.86 4.8 -16.9 4.65 -16.9C4.5 -16.9 4.43 -16.86 4.43 -16.78C4.43 -15.81 4.01 -15.06 3.17 -14.52C2.34 -13.98 1.14 -13.71 -0.42 -13.71L-3.78 -13.71L-3.78 -21.96C-3.78 -22.69 -3.59 -23.22 -3.21 -23.58C-2.84 -23.93 -2.24 -24.1 -1.44 -24.1L-0.22 -24.1C1.45 -24.1 2.8 -23.72 3.82 -22.97C4.85 -22.21 5.57 -21.05 6 -19.49C6.03 -19.41 6.12 -19.38 6.27 -19.41C6.42 -19.44 6.49 -19.48 6.49 -19.53L6.41 -24.91C6.41 -25.15 6.27 -25.27 6 -25.27L-11.14 -25.27C-11.22 -25.27 -11.26 -25.19 -11.26 -25.03C-11.26 -24.87 -11.22 -24.79 -11.14 -24.79C-10.3 -24.79 -9.68 -24.71 -9.28 -24.57C-8.88 -24.42 -8.61 -24.15 -8.47 -23.78C-8.34 -23.4 -8.27 -22.81 -8.27 -22L-8.27 -3.28C-8.27 -2.47 -8.34 -1.87 -8.47 -1.48C-8.61 -1.09 -8.87 -0.82 -9.26 -0.69C-9.65 -0.55 -10.28 -0.49 -11.14 -0.49C-11.22 -0.49 -11.26 -0.4 -11.26 -0.24C-11.26 -0.08 -11.22 0 -11.14 0L6.73 0C6.98 0 7.14 -0.05 7.22 -0.14C7.3 -0.24 7.34 -0.39 7.34 -0.61C7.34 -2.33 7.47 -4.25 7.74 -6.35C7.74 -6.38 7.71 -6.41 7.64 -6.45C7.58 -6.49 7.5 -6.51 7.42 -6.51Z M18.14 -3.44L18.14 -21.96C18.14 -22.77 18.2 -23.37 18.34 -23.76C18.47 -24.15 18.74 -24.42 19.15 -24.57C19.55 -24.71 20.17 -24.79 21.01 -24.79C21.09 -24.79 21.13 -24.87 21.13 -25.03C21.13 -25.19 21.09 -25.27 21.01 -25.27L18.95 -25.23C17.7 -25.18 16.68 -25.15 15.87 -25.15C15.06 -25.15 14.04 -25.18 12.8 -25.23L10.74 -25.27C10.68 -25.27 10.66 -25.19 10.66 -25.03C10.66 -24.87 10.68 -24.79 10.74 -24.79C11.57 -24.79 12.19 -24.71 12.6 -24.57C13 -24.42 13.28 -24.15 13.43 -23.78C13.57 -23.4 13.65 -22.81 13.65 -22L13.65 -3.28C13.65 -2.47 13.57 -1.87 13.43 -1.48C13.28 -1.09 13.01 -0.82 12.62 -0.69C12.23 -0.55 11.6 -0.49 10.74 -0.49C10.68 -0.49 10.66 -0.4 10.66 -0.24C10.66 -0.08 10.68 0 10.74 0L29.82 0C30.04 0 30.19 -0.05 30.29 -0.14C30.38 -0.24 30.43 -0.39 30.43 -0.61C30.43 -2.39 30.55 -4.61 30.79 -7.28C30.79 -7.31 30.76 -7.34 30.69 -7.38C30.62 -7.42 30.56 -7.44 30.51 -7.44C30.4 -7.44 30.35 -7.41 30.35 -7.36C29.84 -5.45 28.81 -3.93 27.28 -2.81C25.74 -1.69 23.92 -1.13 21.82 -1.13L20.44 -1.13C19.74 -1.13 19.23 -1.19 18.92 -1.29C18.61 -1.4 18.41 -1.61 18.3 -1.92C18.19 -2.23 18.14 -2.74 18.14 -3.44Z M63.12 -23.53C63.78 -22.7 64.11 -21.55 64.11 -20.1L64.11 -8.82C64.11 -6.28 63.48 -4.33 62.21 -2.97C60.95 -1.61 59.19 -0.93 56.96 -0.93C54.64 -0.93 52.85 -1.7 51.58 -3.24C50.31 -4.77 49.68 -7.14 49.68 -10.35L49.68 -21.92C49.68 -22.73 49.75 -23.33 49.9 -23.72C50.05 -24.11 50.32 -24.38 50.71 -24.55C51.1 -24.71 51.71 -24.79 52.55 -24.79C52.63 -24.79 52.67 -24.87 52.67 -25.03C52.67 -25.19 52.63 -25.27 52.55 -25.27L50.49 -25.23C49.25 -25.18 48.22 -25.15 47.41 -25.15C46.69 -25.15 45.7 -25.18 44.46 -25.23L42.32 -25.27C42.24 -25.27 42.2 -25.19 42.2 -25.03C42.2 -24.87 42.24 -24.79 42.32 -24.79C43.15 -24.79 43.77 -24.71 44.16 -24.57C44.55 -24.42 44.82 -24.15 44.97 -23.78C45.11 -23.4 45.19 -22.81 45.19 -22L45.19 -8.94C45.19 -7 45.63 -5.3 46.5 -3.86C47.38 -2.42 48.59 -1.32 50.12 -0.57C51.66 0.19 53.42 0.57 55.42 0.57C57.41 0.57 59.17 0.18 60.7 -0.59C62.22 -1.35 63.4 -2.45 64.24 -3.88C65.07 -5.31 65.49 -6.97 65.49 -8.86L65.49 -20.1C65.49 -21.55 65.79 -22.7 66.38 -23.53C66.97 -24.37 67.79 -24.79 68.85 -24.79C68.9 -24.79 68.93 -24.87 68.93 -25.03C68.93 -25.19 68.9 -25.27 68.85 -25.27L66.98 -25.23C66.01 -25.18 65.27 -25.15 64.76 -25.15C64.14 -25.15 63.32 -25.18 62.29 -25.23L60.35 -25.27C60.3 -25.27 60.27 -25.19 60.27 -25.03C60.27 -24.87 60.3 -24.79 60.35 -24.79C61.54 -24.79 62.46 -24.37 63.12 -23.53Z M98.16 -0.24C98.16 -0.4 98.14 -0.49 98.08 -0.49C97 -0.49 95.89 -0.92 94.75 -1.8C93.6 -2.68 92.29 -4.07 90.82 -5.98C89.35 -7.9 87.54 -10.55 85.38 -13.95C86.6 -14.65 87.58 -15.57 88.34 -16.7C89.09 -17.83 89.47 -19.02 89.47 -20.26C89.47 -21.88 88.79 -23.14 87.43 -24.04C86.06 -24.94 84.14 -25.39 81.66 -25.39C81.02 -25.39 80.46 -25.38 79.99 -25.35C79.51 -25.33 79.13 -25.3 78.83 -25.27C77.89 -25.19 77.03 -25.15 76.25 -25.15C75.52 -25.15 74.53 -25.18 73.29 -25.23L71.15 -25.27C71.1 -25.27 71.07 -25.19 71.07 -25.03C71.07 -24.87 71.1 -24.79 71.15 -24.79C71.99 -24.79 72.61 -24.71 73.01 -24.57C73.41 -24.42 73.68 -24.15 73.82 -23.78C73.95 -23.4 74.02 -22.81 74.02 -22L74.02 -3.28C74.02 -2.47 73.95 -1.87 73.8 -1.48C73.65 -1.09 73.38 -0.82 72.99 -0.69C72.6 -0.55 71.97 -0.49 71.11 -0.49C71.03 -0.49 70.99 -0.4 70.99 -0.24C70.99 -0.08 71.03 0 71.11 0C72.03 0 72.75 -0.01 73.29 -0.04L76.25 -0.08L79.32 -0.04C79.83 -0.01 80.53 0 81.42 0C81.48 0 81.5 -0.08 81.5 -0.24C81.5 -0.4 81.48 -0.49 81.42 -0.49C80.56 -0.49 79.93 -0.55 79.54 -0.69C79.15 -0.82 78.89 -1.08 78.75 -1.46C78.62 -1.83 78.55 -2.44 78.55 -3.28L78.55 -12.66C78.98 -12.63 79.72 -12.62 80.77 -12.62C81.18 -12.62 81.49 -12.63 81.7 -12.66C84 -8.67 85.95 -5.56 87.57 -3.34C89.19 -1.11 90.29 0 90.88 0L98.08 0C98.14 0 98.16 -0.08 98.16 -0.24ZM80.9 -13.67C79.98 -13.67 79.2 -13.72 78.55 -13.83L78.55 -21.92C78.55 -22.86 78.74 -23.53 79.12 -23.94C79.49 -24.34 80.14 -24.55 81.06 -24.55C82.27 -24.55 83.2 -24.13 83.85 -23.29C84.49 -22.46 84.82 -20.93 84.82 -18.72C84.82 -17.4 84.69 -16.38 84.43 -15.65C84.18 -14.92 83.77 -14.41 83.2 -14.11C82.63 -13.82 81.87 -13.67 80.9 -13.67Z M117.63 -23.53C118.29 -22.7 118.62 -21.55 118.62 -20.1L118.62 -8.82C118.62 -6.28 117.99 -4.33 116.72 -2.97C115.46 -1.61 113.7 -0.93 111.47 -0.93C109.15 -0.93 107.36 -1.7 106.09 -3.24C104.82 -4.77 104.19 -7.14 104.19 -10.35L104.19 -21.92C104.19 -22.73 104.26 -23.33 104.41 -23.72C104.56 -24.11 104.83 -24.38 105.22 -24.55C105.61 -24.71 106.22 -24.79 107.06 -24.79C107.14 -24.79 107.18 -24.87 107.18 -25.03C107.18 -25.19 107.14 -25.27 107.06 -25.27L105 -25.23C103.76 -25.18 102.73 -25.15 101.92 -25.15C101.2 -25.15 100.21 -25.18 98.97 -25.23L96.83 -25.27C96.75 -25.27 96.71 -25.19 96.71 -25.03C96.71 -24.87 96.75 -24.79 96.83 -24.79C97.66 -24.79 98.28 -24.71 98.67 -24.57C99.06 -24.42 99.33 -24.15 99.48 -23.78C99.62 -23.4 99.7 -22.81 99.7 -22L99.7 -8.94C99.7 -7 100.14 -5.3 101.01 -3.86C101.89 -2.42 103.1 -1.32 104.63 -0.57C106.17 0.19 107.93 0.57 109.93 0.57C111.92 0.57 113.68 0.18 115.21 -0.59C116.73 -1.35 117.91 -2.45 118.75 -3.88C119.58 -5.31 120 -6.97 120 -8.86L120 -20.1C120 -21.55 120.3 -22.7 120.89 -23.53C121.48 -24.37 122.3 -24.79 123.36 -24.79C123.41 -24.79 123.44 -24.87 123.44 -25.03C123.44 -25.19 123.41 -25.27 123.36 -25.27L121.49 -25.23C120.52 -25.18 119.78 -25.15 119.27 -25.15C118.65 -25.15 117.83 -25.18 116.8 -25.23L114.86 -25.27C114.81 -25.27 114.78 -25.19 114.78 -25.03C114.78 -24.87 114.81 -24.79 114.86 -24.79C116.05 -24.79 116.97 -24.37 117.63 -23.53Z M132.74 -1.21C134.95 -0.08 137.54 0.49 140.5 0.49C143.28 0.49 146.4 0.11 149.88 -0.65C150.07 -0.7 150.2 -0.75 150.27 -0.81C150.33 -0.86 150.37 -0.97 150.37 -1.13C150.37 -1.27 150.32 -1.59 150.23 -2.1C150.13 -2.61 150.08 -3.48 150.08 -4.69C150.08 -6.25 150.11 -7.34 150.17 -7.95C150.22 -8.55 150.34 -8.96 150.53 -9.16C150.72 -9.36 151.05 -9.45 151.54 -9.42C151.67 -9.42 151.74 -9.52 151.74 -9.71C151.74 -9.76 151.72 -9.82 151.68 -9.89C151.64 -9.95 151.59 -9.99 151.54 -9.99C150.06 -9.91 148.63 -9.87 147.25 -9.87C145.85 -9.87 144.01 -9.93 141.71 -10.07C141.66 -10.07 141.61 -10.04 141.57 -9.97C141.53 -9.9 141.51 -9.83 141.51 -9.75C141.51 -9.53 141.59 -9.42 141.75 -9.42C143.05 -9.42 143.96 -9.33 144.48 -9.14C145.01 -8.95 145.35 -8.58 145.51 -8.03C145.68 -7.47 145.76 -6.5 145.76 -5.1C145.76 -3.72 145.62 -2.68 145.35 -1.98C145.08 -1.28 144.65 -0.81 144.06 -0.57C143.47 -0.32 142.62 -0.2 141.51 -0.2C139.49 -0.2 137.66 -0.78 136.03 -1.92C134.4 -3.07 133.13 -4.68 132.21 -6.77C131.29 -8.86 130.84 -11.24 130.84 -13.91C130.84 -17.23 131.56 -19.84 133 -21.76C134.44 -23.67 136.54 -24.63 139.29 -24.63C141.42 -24.63 143.31 -24.05 144.97 -22.89C146.63 -21.73 147.93 -20.11 148.87 -18.04C148.92 -17.93 149.02 -17.89 149.15 -17.91C149.29 -17.94 149.36 -17.99 149.36 -18.08L148.83 -23.7C148.8 -23.99 148.76 -24.2 148.69 -24.32C148.62 -24.44 148.47 -24.55 148.22 -24.63C147.44 -24.95 146.4 -25.21 145.11 -25.42C143.82 -25.62 142.54 -25.72 141.27 -25.72C138.38 -25.72 135.78 -25.16 133.44 -24.04C131.11 -22.92 129.28 -21.34 127.94 -19.31C126.61 -17.27 125.94 -14.96 125.94 -12.37C125.94 -9.97 126.52 -7.8 127.68 -5.84C128.84 -3.89 130.53 -2.35 132.74 -1.21Z M175.14 -23.53C175.8 -22.7 176.13 -21.55 176.13 -20.1L176.13 -8.82C176.13 -6.28 175.49 -4.33 174.23 -2.97C172.96 -1.61 171.21 -0.93 168.97 -0.93C166.65 -0.93 164.86 -1.7 163.59 -3.24C162.32 -4.77 161.69 -7.14 161.69 -10.35L161.69 -21.92C161.69 -22.73 161.76 -23.33 161.91 -23.72C162.06 -24.11 162.33 -24.38 162.72 -24.55C163.11 -24.71 163.73 -24.79 164.56 -24.79C164.64 -24.79 164.68 -24.87 164.68 -25.03C164.68 -25.19 164.64 -25.27 164.56 -25.27L162.5 -25.23C161.26 -25.18 160.23 -25.15 159.43 -25.15C158.7 -25.15 157.71 -25.18 156.47 -25.23L154.33 -25.27C154.25 -25.27 154.21 -25.19 154.21 -25.03C154.21 -24.87 154.25 -24.79 154.33 -24.79C155.17 -24.79 155.78 -24.71 156.17 -24.57C156.56 -24.42 156.83 -24.15 156.98 -23.78C157.13 -23.4 157.2 -22.81 157.2 -22L157.2 -8.94C157.2 -7 157.64 -5.3 158.52 -3.86C159.39 -2.42 160.6 -1.32 162.13 -0.57C163.67 0.19 165.44 0.57 167.43 0.57C169.43 0.57 171.19 0.18 172.71 -0.59C174.23 -1.35 175.41 -2.45 176.25 -3.88C177.08 -5.31 177.5 -6.97 177.5 -8.86L177.5 -20.1C177.5 -21.55 177.8 -22.7 178.39 -23.53C178.98 -24.37 179.81 -24.79 180.86 -24.79C180.91 -24.79 180.94 -24.87 180.94 -25.03C180.94 -25.19 180.91 -25.27 180.86 -25.27L179 -25.23C178.03 -25.18 177.29 -25.15 176.77 -25.15C176.15 -25.15 175.33 -25.18 174.31 -25.23L172.37 -25.27C172.31 -25.27 172.28 -25.19 172.28 -25.03C172.28 -24.87 172.31 -24.79 172.37 -24.79C173.55 -24.79 174.47 -24.37 175.14 -23.53Z M208.76 -0.24C208.76 -0.4 208.69 -0.49 208.56 -0.49C207.88 -0.49 207.24 -0.85 206.62 -1.58C206 -2.3 205.21 -3.63 204.27 -5.54L194.16 -25.44C194.13 -25.52 194.01 -25.56 193.8 -25.56C193.61 -25.56 193.49 -25.52 193.43 -25.44L184.66 -6.15C183.96 -4.58 183.35 -3.4 182.84 -2.61C182.33 -1.81 181.81 -1.26 181.3 -0.95C180.79 -0.64 180.16 -0.49 179.4 -0.49C179.29 -0.49 179.24 -0.4 179.24 -0.24C179.24 -0.08 179.29 0 179.4 0C179.97 0 180.71 -0.03 181.63 -0.08C182.65 -0.13 183.53 -0.16 184.25 -0.16C185.01 -0.16 185.9 -0.13 186.92 -0.08C187.84 -0.03 188.54 0 189.03 0C189.16 0 189.23 -0.08 189.23 -0.24C189.23 -0.4 189.16 -0.49 189.03 -0.49C187.87 -0.49 186.94 -0.75 186.26 -1.29C185.57 -1.83 185.22 -2.59 185.22 -3.56C185.22 -4.23 185.4 -4.96 185.75 -5.74L188.62 -12.09L195.82 -12.09L200.02 -3.8C200.56 -2.72 200.83 -1.95 200.83 -1.5C200.83 -1.12 200.68 -0.86 200.37 -0.71C200.06 -0.56 199.55 -0.49 198.85 -0.49C198.74 -0.49 198.69 -0.4 198.69 -0.24C198.69 -0.08 198.74 0 198.85 0C199.39 0 200.12 -0.03 201.04 -0.08C202.01 -0.13 202.83 -0.16 203.5 -0.16C204.01 -0.16 204.86 -0.13 206.05 -0.08C207.18 -0.03 208.02 0 208.56 0C208.69 0 208.76 -0.08 208.76 -0.24ZM189.15 -13.22L192.02 -19.61L195.25 -13.22Z M231.73 -25.03C231.73 -25.19 231.7 -25.27 231.65 -25.27L230.15 -25.23C229.5 -25.18 228.95 -25.15 228.49 -25.15C227.52 -25.15 226.42 -25.18 225.18 -25.23L223.03 -25.27C222.95 -25.27 222.91 -25.19 222.91 -25.03C222.91 -24.87 222.95 -24.79 223.03 -24.79C223.76 -24.79 224.32 -24.62 224.71 -24.28C225.1 -23.95 225.3 -23.45 225.3 -22.81C225.3 -21.94 224.93 -20.91 224.21 -19.69L220.49 -13.34L214.95 -22.08C214.57 -22.67 214.38 -23.18 214.38 -23.62C214.38 -23.97 214.51 -24.25 214.76 -24.46C215.02 -24.68 215.38 -24.79 215.84 -24.79C215.89 -24.79 215.92 -24.87 215.92 -25.03C215.92 -25.19 215.89 -25.27 215.84 -25.27L213.17 -25.23C211.39 -25.18 210.03 -25.15 209.08 -25.15C208.84 -25.15 208.42 -25.18 207.83 -25.23L206.58 -25.27C206.49 -25.27 206.45 -25.19 206.45 -25.03C206.45 -24.87 206.49 -24.79 206.58 -24.79C207.03 -24.79 207.59 -24.48 208.25 -23.88C208.91 -23.27 209.74 -22.19 210.74 -20.62L216.64 -11.44L216.64 -3.28C216.64 -2.47 216.57 -1.87 216.42 -1.48C216.27 -1.09 216 -0.82 215.59 -0.69C215.19 -0.55 214.56 -0.49 213.69 -0.49C213.64 -0.49 213.61 -0.4 213.61 -0.24C213.61 -0.08 213.64 0 213.69 0C214.61 0 215.34 -0.01 215.88 -0.04L218.87 -0.08L221.9 -0.04C222.41 -0.01 223.11 0 224 0C224.09 0 224.13 -0.08 224.13 -0.24C224.13 -0.4 224.09 -0.49 224 -0.49C223.14 -0.49 222.51 -0.55 222.12 -0.69C221.73 -0.82 221.47 -1.08 221.34 -1.46C221.2 -1.83 221.13 -2.44 221.13 -3.28L221.13 -12.29L225.34 -19.33C226.28 -20.89 227.36 -22.19 228.57 -23.23C229.79 -24.27 230.81 -24.79 231.65 -24.79C231.7 -24.79 231.73 -24.87 231.73 -25.03Z"></path></g><rect id="SvgjsRect8036" width="136.9319474835886" height="1.3479212253829318" fill="#ffffff" transform="translate(0, 169.31768785600156) scale(1)" light-content="false"></rect><g id="SvgjsG8037" class="text" transform="translate(230.54155361050326, 175.70230492383524) scale(1)" light-content="false" fill="#ffffff"><path d="M-81.02 -1.47C-81.59 -1.47 -82.12 -1.58 -82.59 -1.8C-83.07 -2.02 -83.49 -2.34 -83.83 -2.75C-84.18 -3.17 -84.45 -3.67 -84.65 -4.27C-84.84 -4.86 -84.94 -5.53 -84.94 -6.28C-84.94 -7.31 -84.8 -8.24 -84.51 -9.07C-84.22 -9.9 -83.83 -10.6 -83.33 -11.19C-82.83 -11.77 -82.24 -12.22 -81.56 -12.53C-80.88 -12.84 -80.15 -13 -79.37 -13C-78.78 -13 -78.31 -12.93 -77.94 -12.8C-77.57 -12.66 -77.27 -12.52 -77.04 -12.36C-76.81 -12.2 -76.62 -12.05 -76.49 -11.92C-76.35 -11.78 -76.22 -11.72 -76.1 -11.72C-76 -11.72 -75.92 -11.74 -75.85 -11.78C-75.78 -11.83 -75.72 -11.88 -75.67 -11.95L-75.02 -12.74C-75.26 -13.03 -75.53 -13.29 -75.81 -13.53C-76.09 -13.76 -76.4 -13.96 -76.74 -14.13C-77.08 -14.3 -77.47 -14.43 -77.88 -14.52C-78.3 -14.6 -78.77 -14.65 -79.28 -14.65C-80.34 -14.65 -81.34 -14.44 -82.26 -14.03C-83.18 -13.61 -83.99 -13.03 -84.67 -12.28C-85.36 -11.53 -85.89 -10.63 -86.28 -9.58C-86.67 -8.54 -86.87 -7.39 -86.87 -6.13C-86.87 -5.2 -86.74 -4.36 -86.49 -3.59C-86.24 -2.82 -85.87 -2.16 -85.4 -1.6C-84.92 -1.05 -84.34 -0.61 -83.66 -0.3C-82.97 0.01 -82.19 0.16 -81.33 0.16C-80.23 0.16 -79.27 -0.03 -78.44 -0.41C-77.62 -0.79 -76.89 -1.32 -76.26 -2.01L-76.91 -2.83C-76.94 -2.86 -76.97 -2.89 -77.01 -2.92C-77.05 -2.94 -77.1 -2.95 -77.17 -2.95C-77.24 -2.95 -77.32 -2.91 -77.42 -2.84C-77.51 -2.77 -77.63 -2.68 -77.77 -2.57C-77.9 -2.46 -78.07 -2.34 -78.25 -2.21C-78.44 -2.08 -78.66 -1.96 -78.92 -1.85C-79.19 -1.74 -79.49 -1.65 -79.83 -1.58C-80.18 -1.5 -80.57 -1.47 -81.02 -1.47Z M-67.16 0L-65.93 -9.91C-66.34 -10.08 -66.75 -10.21 -67.16 -10.28C-67.58 -10.35 -68 -10.38 -68.44 -10.38C-69.05 -10.38 -69.63 -10.3 -70.18 -10.12C-70.73 -9.95 -71.25 -9.71 -71.73 -9.4C-72.21 -9.08 -72.65 -8.71 -73.04 -8.28C-73.43 -7.86 -73.77 -7.39 -74.05 -6.87C-74.33 -6.36 -74.54 -5.82 -74.69 -5.24C-74.85 -4.67 -74.92 -4.07 -74.92 -3.47C-74.92 -2.89 -74.86 -2.37 -74.73 -1.93C-74.6 -1.48 -74.42 -1.1 -74.19 -0.79C-73.96 -0.49 -73.67 -0.25 -73.34 -0.1C-73.01 0.06 -72.65 0.14 -72.24 0.14C-71.87 0.14 -71.51 0.07 -71.17 -0.06C-70.83 -0.2 -70.5 -0.39 -70.18 -0.63C-69.87 -0.88 -69.57 -1.18 -69.29 -1.53C-69.02 -1.88 -68.75 -2.27 -68.51 -2.7L-68.69 -0.63C-68.69 -0.45 -68.65 -0.3 -68.57 -0.18C-68.48 -0.06 -68.32 0 -68.09 0ZM-71.56 -1.35C-72.6 -1.35 -73.12 -2.17 -73.12 -3.79C-73.12 -4.26 -73.07 -4.71 -72.96 -5.15C-72.85 -5.59 -72.7 -6.01 -72.51 -6.4C-72.32 -6.79 -72.09 -7.15 -71.82 -7.48C-71.55 -7.8 -71.25 -8.08 -70.92 -8.32C-70.59 -8.56 -70.23 -8.74 -69.86 -8.87C-69.48 -9 -69.09 -9.07 -68.68 -9.07C-68.54 -9.07 -68.4 -9.06 -68.25 -9.05C-68.11 -9.04 -67.96 -9.02 -67.81 -8.99L-68.25 -5.47C-68.44 -4.87 -68.65 -4.32 -68.9 -3.82C-69.15 -3.31 -69.41 -2.88 -69.69 -2.52C-69.98 -2.15 -70.28 -1.87 -70.59 -1.66C-70.91 -1.46 -71.23 -1.35 -71.56 -1.35Z M-64.48 0L-62.68 0L-62.09 -5.21C-61.9 -5.77 -61.68 -6.27 -61.41 -6.73C-61.14 -7.18 -60.86 -7.57 -60.55 -7.89C-60.24 -8.21 -59.91 -8.46 -59.58 -8.63C-59.25 -8.81 -58.92 -8.9 -58.59 -8.9C-58.16 -8.9 -57.83 -8.76 -57.63 -8.5C-57.42 -8.23 -57.32 -7.82 -57.32 -7.27C-57.32 -7.15 -57.33 -7.03 -57.34 -6.91C-57.35 -6.79 -57.36 -6.66 -57.37 -6.52L-58.14 0L-56.34 0L-55.57 -6.52C-55.55 -6.68 -55.54 -6.82 -55.53 -6.97C-55.52 -7.11 -55.52 -7.25 -55.52 -7.38C-55.52 -8.36 -55.73 -9.11 -56.15 -9.62C-56.57 -10.14 -57.17 -10.39 -57.93 -10.39C-58.66 -10.39 -59.37 -10.16 -60.05 -9.71C-60.74 -9.25 -61.35 -8.57 -61.9 -7.66L-61.75 -9.64C-61.75 -10.05 -61.95 -10.25 -62.35 -10.25L-63.25 -10.25Z M-46.31 0L-45.09 -9.91C-45.49 -10.08 -45.9 -10.21 -46.32 -10.28C-46.73 -10.35 -47.16 -10.38 -47.6 -10.38C-48.2 -10.38 -48.78 -10.3 -49.33 -10.12C-49.89 -9.95 -50.4 -9.71 -50.89 -9.4C-51.37 -9.08 -51.8 -8.71 -52.19 -8.28C-52.59 -7.86 -52.92 -7.39 -53.2 -6.87C-53.48 -6.36 -53.7 -5.82 -53.85 -5.24C-54 -4.67 -54.08 -4.07 -54.08 -3.47C-54.08 -2.89 -54.01 -2.37 -53.88 -1.93C-53.76 -1.48 -53.57 -1.1 -53.34 -0.79C-53.11 -0.49 -52.83 -0.25 -52.5 -0.1C-52.17 0.06 -51.8 0.14 -51.4 0.14C-51.03 0.14 -50.67 0.07 -50.32 -0.06C-49.98 -0.2 -49.65 -0.39 -49.34 -0.63C-49.03 -0.88 -48.73 -1.18 -48.45 -1.53C-48.17 -1.88 -47.91 -2.27 -47.67 -2.7L-47.85 -0.63C-47.85 -0.45 -47.81 -0.3 -47.72 -0.18C-47.64 -0.06 -47.48 0 -47.24 0ZM-50.72 -1.35C-51.76 -1.35 -52.28 -2.17 -52.28 -3.79C-52.28 -4.26 -52.22 -4.71 -52.11 -5.15C-52.01 -5.59 -51.86 -6.01 -51.66 -6.4C-51.47 -6.79 -51.24 -7.15 -50.97 -7.48C-50.7 -7.8 -50.4 -8.08 -50.07 -8.32C-49.74 -8.56 -49.39 -8.74 -49.01 -8.87C-48.63 -9 -48.24 -9.07 -47.84 -9.07C-47.7 -9.07 -47.55 -9.06 -47.41 -9.05C-47.26 -9.04 -47.12 -9.02 -46.97 -8.99L-47.4 -5.47C-47.59 -4.87 -47.81 -4.32 -48.06 -3.82C-48.3 -3.31 -48.57 -2.88 -48.85 -2.52C-49.13 -2.15 -49.43 -1.87 -49.75 -1.66C-50.07 -1.46 -50.39 -1.35 -50.72 -1.35Z M-43.46 0L-41.69 0L-39.88 -14.89L-41.65 -14.89Z M-35.59 -10.24L-37.35 -10.24L-38.59 0L-36.82 0ZM-34.91 -13.46C-34.91 -13.63 -34.94 -13.8 -35.01 -13.96C-35.08 -14.11 -35.17 -14.25 -35.29 -14.37C-35.4 -14.49 -35.54 -14.58 -35.69 -14.65C-35.83 -14.72 -35.99 -14.75 -36.15 -14.75C-36.31 -14.75 -36.46 -14.71 -36.61 -14.64C-36.75 -14.57 -36.89 -14.48 -37 -14.36C-37.12 -14.24 -37.21 -14.11 -37.27 -13.95C-37.34 -13.8 -37.37 -13.63 -37.37 -13.46C-37.37 -13.28 -37.34 -13.12 -37.27 -12.97C-37.21 -12.81 -37.12 -12.68 -37.01 -12.56C-36.89 -12.44 -36.76 -12.35 -36.62 -12.28C-36.47 -12.22 -36.32 -12.18 -36.16 -12.18C-36 -12.18 -35.84 -12.22 -35.7 -12.28C-35.55 -12.35 -35.41 -12.44 -35.3 -12.56C-35.18 -12.68 -35.08 -12.81 -35.01 -12.97C-34.94 -13.12 -34.91 -13.28 -34.91 -13.46Z M-26.05 -9.47L-25.96 -10.24L-33.06 -10.24L-33.23 -8.83L-28.26 -8.83L-34.19 -1.4C-34.27 -1.29 -34.34 -1.17 -34.4 -1.06C-34.45 -0.94 -34.49 -0.84 -34.5 -0.75L-34.59 0L-27.38 0L-27.21 -1.41L-32.27 -1.41L-26.37 -8.79C-26.29 -8.88 -26.22 -8.99 -26.16 -9.1C-26.1 -9.22 -26.07 -9.34 -26.05 -9.47Z M-17.7 0L-16.48 -9.91C-16.88 -10.08 -17.29 -10.21 -17.71 -10.28C-18.12 -10.35 -18.55 -10.38 -18.99 -10.38C-19.59 -10.38 -20.17 -10.3 -20.72 -10.12C-21.28 -9.95 -21.79 -9.71 -22.28 -9.4C-22.76 -9.08 -23.19 -8.71 -23.59 -8.28C-23.98 -7.86 -24.31 -7.39 -24.59 -6.87C-24.87 -6.36 -25.09 -5.82 -25.24 -5.24C-25.39 -4.67 -25.47 -4.07 -25.47 -3.47C-25.47 -2.89 -25.4 -2.37 -25.27 -1.93C-25.15 -1.48 -24.97 -1.1 -24.73 -0.79C-24.5 -0.49 -24.22 -0.25 -23.89 -0.1C-23.56 0.06 -23.19 0.14 -22.79 0.14C-22.42 0.14 -22.06 0.07 -21.72 -0.06C-21.37 -0.2 -21.04 -0.39 -20.73 -0.63C-20.42 -0.88 -20.12 -1.18 -19.84 -1.53C-19.56 -1.88 -19.3 -2.27 -19.06 -2.7L-19.24 -0.63C-19.24 -0.45 -19.2 -0.3 -19.11 -0.18C-19.03 -0.06 -18.87 0 -18.63 0ZM-22.11 -1.35C-23.15 -1.35 -23.67 -2.17 -23.67 -3.79C-23.67 -4.26 -23.61 -4.71 -23.5 -5.15C-23.4 -5.59 -23.25 -6.01 -23.05 -6.4C-22.86 -6.79 -22.63 -7.15 -22.36 -7.48C-22.09 -7.8 -21.79 -8.08 -21.46 -8.32C-21.13 -8.56 -20.78 -8.74 -20.4 -8.87C-20.02 -9 -19.63 -9.07 -19.23 -9.07C-19.09 -9.07 -18.94 -9.06 -18.8 -9.05C-18.65 -9.04 -18.51 -9.02 -18.36 -8.99L-18.79 -5.47C-18.98 -4.87 -19.2 -4.32 -19.45 -3.82C-19.69 -3.31 -19.96 -2.88 -20.24 -2.52C-20.52 -2.15 -20.82 -1.87 -21.14 -1.66C-21.46 -1.46 -21.78 -1.35 -22.11 -1.35Z M-8.1 0L-7.17 0L-5.33 -14.89L-7.1 -14.89L-7.79 -9.26C-8.08 -9.62 -8.44 -9.9 -8.85 -10.1C-9.27 -10.29 -9.72 -10.39 -10.22 -10.39C-10.69 -10.39 -11.14 -10.3 -11.58 -10.12C-12.01 -9.94 -12.41 -9.69 -12.77 -9.37C-13.14 -9.05 -13.47 -8.68 -13.77 -8.24C-14.07 -7.81 -14.33 -7.34 -14.54 -6.83C-14.75 -6.33 -14.92 -5.8 -15.03 -5.25C-15.15 -4.69 -15.2 -4.14 -15.2 -3.59C-15.2 -2.38 -14.96 -1.45 -14.48 -0.81C-14 -0.18 -13.32 0.14 -12.44 0.14C-12.07 0.14 -11.71 0.07 -11.35 -0.07C-10.99 -0.2 -10.64 -0.4 -10.31 -0.65C-9.97 -0.9 -9.65 -1.21 -9.35 -1.57C-9.05 -1.92 -8.77 -2.32 -8.51 -2.76L-8.7 -0.63C-8.7 -0.45 -8.66 -0.3 -8.58 -0.18C-8.49 -0.06 -8.33 0 -8.1 0ZM-11.77 -1.3C-12.29 -1.3 -12.7 -1.51 -12.99 -1.94C-13.28 -2.36 -13.43 -2.97 -13.43 -3.77C-13.43 -4.37 -13.34 -4.98 -13.18 -5.6C-13.02 -6.22 -12.79 -6.78 -12.49 -7.28C-12.19 -7.79 -11.83 -8.2 -11.4 -8.51C-10.97 -8.83 -10.49 -8.99 -9.96 -8.99C-9.59 -8.99 -9.23 -8.91 -8.88 -8.76C-8.52 -8.62 -8.21 -8.36 -7.96 -8.01L-8.29 -5.3C-8.49 -4.72 -8.72 -4.18 -8.98 -3.69C-9.25 -3.21 -9.53 -2.79 -9.84 -2.43C-10.15 -2.08 -10.46 -1.8 -10.79 -1.6C-11.12 -1.4 -11.44 -1.3 -11.77 -1.3Z M-0.58 -1.26C-1.28 -1.26 -1.82 -1.5 -2.19 -1.99C-2.56 -2.47 -2.74 -3.18 -2.74 -4.12C-2.74 -4.76 -2.66 -5.38 -2.51 -5.96C-2.35 -6.55 -2.13 -7.07 -1.85 -7.52C-1.57 -7.96 -1.22 -8.32 -0.82 -8.59C-0.42 -8.85 0.03 -8.99 0.53 -8.99C1.23 -8.99 1.76 -8.75 2.13 -8.27C2.5 -7.79 2.69 -7.08 2.69 -6.14C2.69 -5.5 2.61 -4.88 2.46 -4.3C2.3 -3.71 2.08 -3.19 1.8 -2.74C1.52 -2.3 1.17 -1.94 0.77 -1.67C0.36 -1.4 -0.08 -1.26 -0.58 -1.26ZM-0.74 0.14C0 0.14 0.68 -0.03 1.32 -0.36C1.96 -0.69 2.52 -1.15 2.99 -1.72C3.46 -2.29 3.82 -2.96 4.09 -3.72C4.36 -4.48 4.5 -5.29 4.5 -6.15C4.5 -6.81 4.4 -7.41 4.22 -7.94C4.03 -8.47 3.76 -8.92 3.43 -9.28C3.09 -9.64 2.69 -9.92 2.22 -10.11C1.76 -10.31 1.25 -10.4 0.69 -10.4C-0.05 -10.4 -0.74 -10.24 -1.38 -9.91C-2.02 -9.58 -2.57 -9.13 -3.04 -8.55C-3.51 -7.98 -3.88 -7.31 -4.14 -6.55C-4.41 -5.79 -4.55 -4.98 -4.55 -4.11C-4.55 -3.44 -4.45 -2.84 -4.27 -2.32C-4.08 -1.79 -3.81 -1.34 -3.48 -0.98C-3.14 -0.62 -2.74 -0.34 -2.27 -0.15C-1.81 0.05 -1.3 0.14 -0.74 0.14Z M12.36 -8.6L12.82 -9.25C12.48 -9.6 12.08 -9.88 11.61 -10.08C11.14 -10.29 10.6 -10.39 9.99 -10.39C9.41 -10.39 8.89 -10.3 8.43 -10.11C7.96 -9.93 7.57 -9.68 7.25 -9.37C6.92 -9.06 6.68 -8.71 6.51 -8.3C6.33 -7.9 6.25 -7.49 6.25 -7.06C6.25 -6.56 6.35 -6.17 6.56 -5.87C6.77 -5.58 7.03 -5.34 7.35 -5.15C7.67 -4.97 8.01 -4.81 8.37 -4.7C8.73 -4.58 9.07 -4.45 9.39 -4.32C9.71 -4.18 9.97 -4.01 10.18 -3.81C10.39 -3.61 10.49 -3.34 10.49 -2.99C10.49 -2.74 10.44 -2.5 10.35 -2.27C10.25 -2.04 10.11 -1.85 9.92 -1.68C9.74 -1.51 9.51 -1.37 9.25 -1.27C8.98 -1.17 8.68 -1.12 8.35 -1.12C7.97 -1.12 7.66 -1.17 7.42 -1.26C7.17 -1.36 6.97 -1.46 6.8 -1.58C6.64 -1.7 6.51 -1.81 6.4 -1.9C6.29 -1.99 6.18 -2.04 6.08 -2.04C5.96 -2.04 5.87 -2.02 5.79 -1.97C5.72 -1.92 5.65 -1.86 5.6 -1.77L5.16 -1.08C5.47 -0.72 5.88 -0.42 6.38 -0.19C6.89 0.05 7.46 0.16 8.12 0.16C8.72 0.16 9.27 0.06 9.76 -0.13C10.25 -0.33 10.67 -0.59 11.01 -0.91C11.36 -1.24 11.63 -1.62 11.81 -2.05C12 -2.48 12.09 -2.94 12.09 -3.41C12.09 -3.89 11.99 -4.29 11.78 -4.59C11.57 -4.89 11.31 -5.14 10.99 -5.34C10.67 -5.53 10.33 -5.69 9.96 -5.82C9.6 -5.95 9.25 -6.08 8.94 -6.22C8.62 -6.36 8.36 -6.52 8.15 -6.71C7.94 -6.9 7.83 -7.15 7.83 -7.47C7.83 -7.69 7.88 -7.9 7.98 -8.1C8.08 -8.3 8.22 -8.48 8.4 -8.62C8.58 -8.77 8.8 -8.89 9.05 -8.97C9.3 -9.06 9.57 -9.1 9.88 -9.1C10.2 -9.1 10.48 -9.06 10.71 -8.98C10.94 -8.9 11.13 -8.82 11.29 -8.73C11.45 -8.64 11.58 -8.56 11.69 -8.48C11.8 -8.41 11.91 -8.37 12 -8.37C12.08 -8.37 12.15 -8.39 12.2 -8.43C12.26 -8.46 12.31 -8.52 12.36 -8.6Z M17.11 3.47L18.85 3.47L19.4 -1.01C19.68 -0.64 20.03 -0.36 20.45 -0.16C20.87 0.04 21.33 0.14 21.84 0.14C22.31 0.14 22.76 0.05 23.19 -0.13C23.62 -0.31 24.02 -0.56 24.39 -0.88C24.76 -1.2 25.09 -1.58 25.39 -2.02C25.69 -2.45 25.95 -2.92 26.16 -3.42C26.37 -3.92 26.53 -4.45 26.65 -5C26.76 -5.56 26.82 -6.11 26.82 -6.66C26.82 -7.88 26.58 -8.81 26.09 -9.44C25.61 -10.08 24.93 -10.39 24.06 -10.39C23.68 -10.39 23.31 -10.32 22.95 -10.19C22.58 -10.05 22.24 -9.85 21.9 -9.59C21.57 -9.34 21.25 -9.03 20.95 -8.67C20.64 -8.31 20.36 -7.91 20.11 -7.46L20.28 -9.64C20.28 -10.05 20.08 -10.25 19.67 -10.25L18.77 -10.25ZM23.38 -8.95C23.91 -8.95 24.32 -8.74 24.61 -8.32C24.9 -7.9 25.04 -7.29 25.04 -6.49C25.04 -6.09 25 -5.68 24.93 -5.26C24.86 -4.85 24.75 -4.45 24.61 -4.06C24.47 -3.67 24.3 -3.31 24.1 -2.97C23.9 -2.63 23.67 -2.33 23.41 -2.08C23.16 -1.82 22.87 -1.62 22.56 -1.48C22.25 -1.33 21.92 -1.25 21.57 -1.25C21.2 -1.25 20.84 -1.33 20.48 -1.48C20.12 -1.63 19.81 -1.89 19.55 -2.26L19.88 -4.87C20.07 -5.46 20.3 -6 20.57 -6.5C20.83 -7 21.12 -7.43 21.43 -7.79C21.74 -8.16 22.06 -8.44 22.4 -8.64C22.73 -8.85 23.06 -8.95 23.38 -8.95Z M35.54 0L36.77 -9.91C36.36 -10.08 35.95 -10.21 35.54 -10.28C35.13 -10.35 34.7 -10.38 34.26 -10.38C33.65 -10.38 33.07 -10.3 32.52 -10.12C31.97 -9.95 31.45 -9.71 30.97 -9.4C30.49 -9.08 30.05 -8.71 29.66 -8.28C29.27 -7.86 28.93 -7.39 28.66 -6.87C28.38 -6.36 28.16 -5.82 28.01 -5.24C27.86 -4.67 27.78 -4.07 27.78 -3.47C27.78 -2.89 27.84 -2.37 27.97 -1.93C28.1 -1.48 28.28 -1.1 28.51 -0.79C28.75 -0.49 29.03 -0.25 29.36 -0.1C29.69 0.06 30.06 0.14 30.46 0.14C30.83 0.14 31.19 0.07 31.53 -0.06C31.87 -0.2 32.2 -0.39 32.52 -0.63C32.83 -0.88 33.13 -1.18 33.41 -1.53C33.69 -1.88 33.95 -2.27 34.19 -2.7L34.01 -0.63C34.01 -0.45 34.05 -0.3 34.13 -0.18C34.22 -0.06 34.38 0 34.61 0ZM31.14 -1.35C30.1 -1.35 29.58 -2.17 29.58 -3.79C29.58 -4.26 29.63 -4.71 29.74 -5.15C29.85 -5.59 30 -6.01 30.19 -6.4C30.38 -6.79 30.61 -7.15 30.88 -7.48C31.15 -7.8 31.45 -8.08 31.78 -8.32C32.11 -8.56 32.47 -8.74 32.85 -8.87C33.22 -9 33.61 -9.07 34.02 -9.07C34.16 -9.07 34.3 -9.06 34.45 -9.05C34.59 -9.04 34.74 -9.02 34.89 -8.99L34.45 -5.47C34.26 -4.87 34.05 -4.32 33.8 -3.82C33.55 -3.31 33.29 -2.88 33.01 -2.52C32.72 -2.15 32.42 -1.87 32.11 -1.66C31.79 -1.46 31.47 -1.35 31.14 -1.35Z M38.22 0L39.98 0L40.55 -4.75C40.89 -6.05 41.32 -7.01 41.83 -7.65C42.34 -8.28 42.93 -8.6 43.58 -8.6C43.88 -8.6 44.18 -8.54 44.5 -8.41L44.83 -10.14C44.54 -10.26 44.26 -10.32 43.98 -10.32C43.38 -10.32 42.8 -10.07 42.26 -9.55C41.72 -9.04 41.23 -8.31 40.79 -7.37L40.93 -9.23C40.93 -9.24 40.93 -9.26 40.94 -9.3C40.94 -9.34 40.94 -9.39 40.95 -9.44C40.95 -9.5 40.95 -9.55 40.96 -9.6C40.96 -9.65 40.96 -9.69 40.96 -9.72C40.96 -9.9 40.91 -10.03 40.8 -10.12C40.69 -10.21 40.55 -10.25 40.36 -10.25L39.46 -10.25Z M52.45 0L53.67 -9.91C53.27 -10.08 52.86 -10.21 52.44 -10.28C52.03 -10.35 51.6 -10.38 51.16 -10.38C50.56 -10.38 49.98 -10.3 49.42 -10.12C48.87 -9.95 48.35 -9.71 47.87 -9.4C47.39 -9.08 46.95 -8.71 46.56 -8.28C46.17 -7.86 45.84 -7.39 45.56 -6.87C45.28 -6.36 45.06 -5.82 44.91 -5.24C44.76 -4.67 44.68 -4.07 44.68 -3.47C44.68 -2.89 44.75 -2.37 44.88 -1.93C45 -1.48 45.18 -1.1 45.42 -0.79C45.65 -0.49 45.93 -0.25 46.26 -0.1C46.59 0.06 46.96 0.14 47.36 0.14C47.73 0.14 48.09 0.07 48.43 -0.06C48.78 -0.2 49.11 -0.39 49.42 -0.63C49.73 -0.88 50.03 -1.18 50.31 -1.53C50.59 -1.88 50.85 -2.27 51.09 -2.7L50.91 -0.63C50.91 -0.45 50.95 -0.3 51.04 -0.18C51.12 -0.06 51.28 0 51.52 0ZM48.04 -1.35C47 -1.35 46.48 -2.17 46.48 -3.79C46.48 -4.26 46.54 -4.71 46.64 -5.15C46.75 -5.59 46.9 -6.01 47.09 -6.4C47.29 -6.79 47.52 -7.15 47.79 -7.48C48.06 -7.8 48.36 -8.08 48.69 -8.32C49.02 -8.56 49.37 -8.74 49.75 -8.87C50.13 -9 50.52 -9.07 50.92 -9.07C51.06 -9.07 51.21 -9.06 51.35 -9.05C51.5 -9.04 51.64 -9.02 51.79 -8.99L51.36 -5.47C51.17 -4.87 50.95 -4.32 50.7 -3.82C50.46 -3.31 50.19 -2.88 49.91 -2.52C49.63 -2.15 49.33 -1.87 49.01 -1.66C48.69 -1.46 48.37 -1.35 48.04 -1.35Z M59.56 -14.49L63.21 0L64.92 0L72.13 -14.49L70.61 -14.49C70.45 -14.49 70.31 -14.44 70.18 -14.34C70.06 -14.24 69.97 -14.14 69.92 -14.03L64.97 -3.68C64.87 -3.46 64.76 -3.22 64.65 -2.96C64.55 -2.71 64.45 -2.44 64.36 -2.15C64.32 -2.44 64.28 -2.71 64.23 -2.97C64.18 -3.23 64.13 -3.46 64.07 -3.68L61.66 -14.03C61.62 -14.16 61.56 -14.27 61.47 -14.36C61.37 -14.44 61.24 -14.49 61.07 -14.49Z M74.39 -1.26C73.68 -1.26 73.14 -1.5 72.77 -1.99C72.41 -2.47 72.22 -3.18 72.22 -4.12C72.22 -4.76 72.3 -5.38 72.45 -5.96C72.61 -6.55 72.83 -7.07 73.11 -7.52C73.39 -7.96 73.74 -8.32 74.14 -8.59C74.54 -8.85 74.99 -8.99 75.49 -8.99C76.19 -8.99 76.72 -8.75 77.09 -8.27C77.47 -7.79 77.65 -7.08 77.65 -6.14C77.65 -5.5 77.57 -4.88 77.42 -4.3C77.26 -3.71 77.04 -3.19 76.76 -2.74C76.48 -2.3 76.13 -1.94 75.73 -1.67C75.33 -1.4 74.88 -1.26 74.39 -1.26ZM74.22 0.14C74.96 0.14 75.65 -0.03 76.29 -0.36C76.93 -0.69 77.48 -1.15 77.95 -1.72C78.42 -2.29 78.79 -2.96 79.06 -3.72C79.33 -4.48 79.46 -5.29 79.46 -6.15C79.46 -6.81 79.37 -7.41 79.18 -7.94C78.99 -8.47 78.73 -8.92 78.39 -9.28C78.05 -9.64 77.65 -9.92 77.19 -10.11C76.72 -10.31 76.21 -10.4 75.65 -10.4C74.91 -10.4 74.22 -10.24 73.58 -9.91C72.94 -9.58 72.39 -9.13 71.92 -8.55C71.45 -7.98 71.09 -7.31 70.82 -6.55C70.55 -5.79 70.41 -4.98 70.41 -4.11C70.41 -3.44 70.51 -2.84 70.7 -2.32C70.88 -1.79 71.15 -1.34 71.48 -0.98C71.82 -0.62 72.22 -0.34 72.69 -0.15C73.15 0.05 73.66 0.14 74.22 0.14Z M87.33 -8.6L87.78 -9.25C87.44 -9.6 87.04 -9.88 86.57 -10.08C86.1 -10.29 85.56 -10.39 84.95 -10.39C84.37 -10.39 83.85 -10.3 83.39 -10.11C82.93 -9.93 82.53 -9.68 82.21 -9.37C81.89 -9.06 81.64 -8.71 81.47 -8.3C81.29 -7.9 81.21 -7.49 81.21 -7.06C81.21 -6.56 81.31 -6.17 81.52 -5.87C81.73 -5.58 81.99 -5.34 82.31 -5.15C82.63 -4.97 82.97 -4.81 83.33 -4.7C83.7 -4.58 84.04 -4.45 84.35 -4.32C84.67 -4.18 84.93 -4.01 85.14 -3.81C85.35 -3.61 85.45 -3.34 85.45 -2.99C85.45 -2.74 85.41 -2.5 85.31 -2.27C85.21 -2.04 85.07 -1.85 84.88 -1.68C84.7 -1.51 84.47 -1.37 84.21 -1.27C83.94 -1.17 83.64 -1.12 83.31 -1.12C82.93 -1.12 82.62 -1.17 82.38 -1.26C82.13 -1.36 81.93 -1.46 81.76 -1.58C81.6 -1.7 81.47 -1.81 81.36 -1.9C81.25 -1.99 81.14 -2.04 81.04 -2.04C80.92 -2.04 80.83 -2.02 80.75 -1.97C80.68 -1.92 80.62 -1.86 80.56 -1.77L80.12 -1.08C80.43 -0.72 80.84 -0.42 81.35 -0.19C81.85 0.05 82.43 0.16 83.08 0.16C83.69 0.16 84.23 0.06 84.72 -0.13C85.21 -0.33 85.63 -0.59 85.98 -0.91C86.32 -1.24 86.59 -1.62 86.77 -2.05C86.96 -2.48 87.05 -2.94 87.05 -3.41C87.05 -3.89 86.95 -4.29 86.74 -4.59C86.53 -4.89 86.27 -5.14 85.95 -5.34C85.63 -5.53 85.29 -5.69 84.92 -5.82C84.56 -5.95 84.21 -6.08 83.9 -6.22C83.58 -6.36 83.32 -6.52 83.11 -6.71C82.9 -6.9 82.8 -7.15 82.8 -7.47C82.8 -7.69 82.84 -7.9 82.94 -8.1C83.04 -8.3 83.18 -8.48 83.36 -8.62C83.54 -8.77 83.76 -8.89 84.01 -8.97C84.26 -9.06 84.53 -9.1 84.84 -9.1C85.16 -9.1 85.44 -9.06 85.67 -8.98C85.9 -8.9 86.09 -8.82 86.25 -8.73C86.41 -8.64 86.54 -8.56 86.65 -8.48C86.76 -8.41 86.87 -8.37 86.96 -8.37C87.04 -8.37 87.11 -8.39 87.16 -8.43C87.22 -8.46 87.27 -8.52 87.33 -8.6Z"></path></g><rect id="SvgjsRect8038" width="136.93194748358863" height="1.3479212253829318" fill="#ffffff" transform="translate(325.06805251641117, 169.31768785600156) scale(1)" light-content="false"></rect></g></g></svg>