<svg xmlns="http://www.w3.org/2000/svg" id="SvgjsSvg32360" width="3406.593080033675" height="4096" version="1.1" xmlns:xlink="http://www.w3.org/1999/xlink" xmlns:svgjs="http://svgjs.com/svgjs"><defs id="SvgjsDefs32361"></defs><g id="SvgjsG32362" transform="translate(328, 328) scale(34.4)" opacity="1"><defs id="SvgjsDefs10003"></defs><g id="SvgjsG10004" transform="scale(0.4370989290145473)" opacity="1"><g id="SvgjsG10005" class="SY6T6Y8Kc" transform="translate(-25.40033775650325, -2.4634051774448045) scale(2.337196563040607)" light-content="false" non-strokable="false" fill="#1a1c1b"><path d="M70.934 40.191c7.71-1.434 12.781-3.074 16.406-8.05 1.91-2.622 2.309-5.47 1.137-8.024-1.86-4.047-7.23-6.781-14.816-7.586-1.004-9.434-5.094-15.473-10.57-15.473-1.707 0-3.399.601-5.04 1.797-4.976 3.62-6.613 8.691-8.05 16.406-1.434-7.719-3.074-12.79-8.051-16.41-1.637-1.192-3.336-1.797-5.04-1.797-5.472 0-9.562 6.039-10.565 15.477-7.582.8-12.953 3.539-14.816 7.582-1.176 2.55-.774 5.406 1.133 8.027 3.62 4.977 8.695 6.613 16.406 8.051-7.715 1.434-12.785 3.074-16.406 8.05-1.906 2.622-2.309 5.47-1.133 8.024 1.86 4.047 7.23 6.781 14.816 7.582 1 9.438 5.086 15.473 10.566 15.473 1.703 0 3.398-.601 5.039-1.797 3.656-2.656 5.504-6.113 6.8-10.812l-.003 32.23h2.5l.004-32.223c1.297 4.7 3.14 8.153 6.8 10.81 1.637 1.19 3.333 1.796 5.04 1.796h.004c5.468 0 9.558-6.039 10.566-15.477 7.582-.8 12.953-3.539 14.816-7.578 1.175-2.55.773-5.406-1.133-8.023-3.63-4.98-8.7-6.618-16.41-8.055zM86.2 55.226c-1.531 3.332-6.688 5.664-13.789 6.23a1.254 1.254 0 0 0-1.148 1.145c-.684 8.512-3.97 14.227-8.176 14.227-1.168 0-2.367-.445-3.574-1.316-5.239-3.809-6.22-9.641-7.996-20.227l-.29-1.723a1.25 1.25 0 0 0-1.234-1.043c-.61 0-1.129.441-1.234 1.043l-.286 1.695c-1.78 10.602-2.761 16.441-8.003 20.258-1.2.875-2.403 1.317-3.57 1.317-4.212 0-7.497-5.715-8.177-14.223a1.25 1.25 0 0 0-1.144-1.145c-7.102-.57-12.258-2.898-13.793-6.23-1-2.176-.074-4.2.887-5.512 3.808-5.242 9.64-6.219 20.238-8l1.71-.29a1.25 1.25 0 0 0 1.044-1.234c0-.609-.442-1.128-1.043-1.234l-1.684-.281c-10.609-1.781-16.449-2.762-20.266-8.004-.953-1.313-1.883-3.336-.883-5.516 1.531-3.332 6.692-5.664 13.793-6.23a1.257 1.257 0 0 0 1.149-1.145c.675-8.508 3.96-14.227 8.171-14.227 1.168 0 2.368.446 3.57 1.317 5.24 3.808 6.22 9.64 7.997 20.227l.293 1.722a1.25 1.25 0 0 0 2.465 0l.281-1.699C53.289 14.526 54.27 8.69 59.512 4.874c1.2-.87 2.402-1.316 3.57-1.316 4.211 0 7.496 5.715 8.176 14.223.05.61.535 1.094 1.148 1.144 7.102.575 12.258 2.899 13.79 6.235 1 2.175.074 4.199-.887 5.511-3.817 5.246-9.657 6.223-20.266 8.004l-1.688.282a1.247 1.247 0 0 0-1.039 1.234c0 .61.442 1.129 1.04 1.234l1.702.286c10.598 1.78 16.438 2.761 20.254 8.003.961 1.313 1.887 3.336.887 5.512z"></path><path d="M53.676 37.766c.32 0 .64-.121.887-.363l8.238-8.239a1.247 1.247 0 0 0 0-1.765 1.247 1.247 0 0 0-1.766 0l-8.238 8.238a1.247 1.247 0 0 0 .879 2.129zM38.973 27.391a1.247 1.247 0 0 0-1.766 0 1.247 1.247 0 0 0 0 1.766l8.239 8.238c.246.246.566.363.886.363a1.247 1.247 0 0 0 .887-2.129zm6.468 15.593l-8.238 8.238a1.247 1.247 0 0 0 .886 2.13c.317 0 .641-.122.887-.364l8.238-8.238a1.247 1.247 0 0 0 0-1.766 1.257 1.257 0 0 0-1.773 0zm9.118 0a1.247 1.247 0 0 0-1.766 0 1.247 1.247 0 0 0 0 1.766l8.239 8.238c.246.246.566.363.886.363a1.247 1.247 0 0 0 .887-2.129z"></path></g></g></g></svg>